<?xml version="1.0" encoding="UTF-8" standalone="no"?><svg xmlns="http://www.w3.org/2000/svg" xmlns:xlink="http://www.w3.org/1999/xlink" contentStyleType="text/css" height="839px" preserveAspectRatio="none" style="width:4395px;height:839px;background:#FFFFFF;" version="1.1" viewBox="0 0 4395 839" width="4395px" zoomAndPan="magnify"><defs/><g><rect fill="none" height="26.2969" id="_title" style="stroke:none;stroke-width:1.0;" width="437" x="1972.265" y="5"/><text fill="#000000" font-family="sans-serif" font-size="14" font-weight="bold" lengthAdjust="spacing" textLength="427" x="1977.265" y="22.9951">Casos de Uso - Página Cargar Datos (cargar_datos.py)</text><!--MD5=[e5c1b35755886b5ea35b304f40fad1fa]
cluster Sistema EGG-lab\n(Página Cargar Datos)--><g id="cluster_Sistema EGG-lab\n(Página Cargar Datos)"><rect fill="none" height="450" rx="2.5" ry="2.5" style="stroke:#181818;stroke-width:1.0;" width="1518" x="1424.53" y="216.2969"/><text fill="#000000" font-family="sans-serif" font-size="14" font-weight="bold" lengthAdjust="spacing" textLength="129" x="2119.03" y="231.292">Sistema EGG-lab</text><text fill="#000000" font-family="sans-serif" font-size="14" font-weight="bold" lengthAdjust="spacing" textLength="172" x="2097.53" y="247.5889">(Página Cargar Datos)</text></g><!--MD5=[52fecc1dfd2e74b7a9f5811a07fe7cfe]
cluster Sistema de Archivos--><g id="cluster_Sistema de Archivos"><rect fill="none" height="103" rx="2.5" ry="2.5" style="stroke:#181818;stroke-width:1.0;" width="522" x="838.53" y="730.2969"/><text fill="#000000" font-family="sans-serif" font-size="14" font-weight="bold" lengthAdjust="spacing" textLength="161" x="1019.03" y="745.292">Sistema de Archivos</text></g><!--MD5=[b4e09d266be9964199f2622adcc056fa]
cluster Backend--><g id="cluster_Backend"><rect fill="none" height="98" rx="2.5" ry="2.5" style="stroke:#181818;stroke-width:1.0;" width="442" x="221.53" y="565.7969"/><text fill="#000000" font-family="sans-serif" font-size="14" font-weight="bold" lengthAdjust="spacing" textLength="67" x="409.03" y="580.792">Backend</text></g><g id="elem_UC1"><ellipse cx="1702.4909" cy="293.4788" fill="#90EE90" rx="95.4609" ry="26.1819" style="stroke:#00008B;stroke-width:0.5;"/><text fill="#000000" font-family="sans-serif" font-size="14" lengthAdjust="spacing" textLength="118" x="1640.4909" y="289.0779">Mostrar Datasets</text><text fill="#000000" font-family="sans-serif" font-size="14" lengthAdjust="spacing" textLength="79" x="1659.9909" y="305.3748">Pendientes</text></g><g id="elem_UC2"><ellipse cx="1917.364" cy="293.4081" fill="#ADD8E6" rx="83.834" ry="26.1113" style="stroke:#00008B;stroke-width:0.5;"/><text fill="#000000" font-family="sans-serif" font-size="14" lengthAdjust="spacing" textLength="102" x="1863.364" y="289.0072">Listar Datasets</text><text fill="#000000" font-family="sans-serif" font-size="14" lengthAdjust="spacing" textLength="82" x="1873.364" y="305.3041">Procesados</text></g><g id="elem_UC3"><ellipse cx="2132.7176" cy="293.4826" fill="#FFFF00" rx="96.1876" ry="26.1858" style="stroke:#00008B;stroke-width:0.5;"/><text fill="#000000" font-family="sans-serif" font-size="14" lengthAdjust="spacing" textLength="119" x="2070.2176" y="289.0818">Procesar Dataset</text><text fill="#000000" font-family="sans-serif" font-size="14" lengthAdjust="spacing" textLength="71" x="2094.2176" y="305.3786">Pendiente</text></g><g id="elem_UC4"><ellipse cx="2782.5257" cy="293.5461" fill="#FFA500" rx="109.9957" ry="26.2493" style="stroke:#00008B;stroke-width:0.5;"/><text fill="#000000" font-family="sans-serif" font-size="14" lengthAdjust="spacing" textLength="138" x="2710.5257" y="289.1453">Seleccionar Dataset</text><text fill="#000000" font-family="sans-serif" font-size="14" lengthAdjust="spacing" textLength="74" x="2742.5257" y="305.4421">Procesado</text></g><g id="elem_UC5"><ellipse cx="2840.544" cy="476.9228" fill="#FFC0CB" rx="86.014" ry="26.1259" style="stroke:#00008B;stroke-width:0.5;"/><text fill="#000000" font-family="sans-serif" font-size="14" lengthAdjust="spacing" textLength="105" x="2785.044" y="472.5219">Redirigir a Vista</text><text fill="#000000" font-family="sans-serif" font-size="14" lengthAdjust="spacing" textLength="76" x="2799.544" y="488.8188">de Dataset</text></g><g id="elem_UC6"><ellipse cx="2132.6245" cy="476.9975" fill="#FFFFE0" rx="99.0945" ry="26.2006" style="stroke:#00008B;stroke-width:0.5;"/><text fill="#000000" font-family="sans-serif" font-size="14" lengthAdjust="spacing" textLength="123" x="2068.1245" y="472.5966">Obtener Datasets</text><text fill="#000000" font-family="sans-serif" font-size="14" lengthAdjust="spacing" textLength="79" x="2090.1245" y="488.8935">Pendientes</text></g><g id="elem_UC7"><ellipse cx="1539.6245" cy="476.9975" fill="#FFFFE0" rx="99.0945" ry="26.2006" style="stroke:#00008B;stroke-width:0.5;"/><text fill="#000000" font-family="sans-serif" font-size="14" lengthAdjust="spacing" textLength="123" x="1475.1245" y="472.5966">Obtener Datasets</text><text fill="#000000" font-family="sans-serif" font-size="14" lengthAdjust="spacing" textLength="82" x="1495.6245" y="488.8935">Procesados</text></g><g id="elem_UC8"><ellipse cx="1904.4973" cy="624.4322" fill="#FFFFE0" rx="87.4673" ry="26.1353" style="stroke:#00008B;stroke-width:0.5;"/><text fill="#000000" font-family="sans-serif" font-size="14" lengthAdjust="spacing" textLength="107" x="1847.9973" y="620.0313">Validar Archivos</text><text fill="#000000" font-family="sans-serif" font-size="14" lengthAdjust="spacing" textLength="29" x="1886.9973" y="636.3282">EEG</text></g><g id="elem_UC9"><ellipse cx="1769.4909" cy="476.9788" fill="#FFFFE0" rx="95.4609" ry="26.1819" style="stroke:#00008B;stroke-width:0.5;"/><text fill="#000000" font-family="sans-serif" font-size="14" lengthAdjust="spacing" textLength="118" x="1707.4909" y="472.5779">Generar Archivos</text><text fill="#000000" font-family="sans-serif" font-size="14" lengthAdjust="spacing" textLength="108" x="1712.4909" y="488.8748">.npy y Metadata</text></g><g id="elem_UC10"><ellipse cx="2611.3454" cy="477.0372" fill="#FFFFE0" rx="107.8154" ry="26.2403" style="stroke:#00008B;stroke-width:0.5;"/><text fill="#000000" font-family="sans-serif" font-size="14" lengthAdjust="spacing" textLength="135" x="2540.8454" y="472.6363">Guardar Dataset en</text><text fill="#000000" font-family="sans-serif" font-size="14" lengthAdjust="spacing" textLength="84" x="2566.3454" y="488.9332">Store Global</text></g><g id="elem_UC11"><ellipse cx="2367.4696" cy="476.9289" fill="#FFFFE0" rx="100.9396" ry="26.132" style="stroke:#00008B;stroke-width:0.5;"/><text fill="#000000" font-family="sans-serif" font-size="14" lengthAdjust="spacing" textLength="124" x="2301.9696" y="472.528">Mostrar Feedback</text><text fill="#000000" font-family="sans-serif" font-size="14" lengthAdjust="spacing" textLength="126" x="2300.9696" y="488.8249">de Procesamiento</text></g><g id="elem_EXT1"><ellipse cx="1270.7506" cy="791.3474" fill="#D3D3D3" rx="73.7206" ry="26.0505" style="stroke:#00008B;stroke-width:0.5;"/><text fill="#000000" font-family="sans-serif" font-size="14" lengthAdjust="spacing" textLength="88" x="1225.9114" y="786.3192">Leer Carpeta</text><text fill="#000000" font-family="sans-serif" font-size="14" lengthAdjust="spacing" textLength="37" x="1251.4114" y="802.6161">Data/</text></g><g id="elem_EXT2"><ellipse cx="928.7506" cy="791.3474" fill="#D3D3D3" rx="73.7206" ry="26.0505" style="stroke:#00008B;stroke-width:0.5;"/><text fill="#000000" font-family="sans-serif" font-size="14" lengthAdjust="spacing" textLength="88" x="883.9114" y="786.3192">Leer Carpeta</text><text fill="#000000" font-family="sans-serif" font-size="14" lengthAdjust="spacing" textLength="30" x="912.9114" y="802.6161">Aux/</text></g><g id="elem_EXT3"><ellipse cx="1099.427" cy="791.3441" fill="#D3D3D3" rx="62.397" ry="26.0473" style="stroke:#00008B;stroke-width:0.5;"/><text fill="#000000" font-family="sans-serif" font-size="14" lengthAdjust="spacing" textLength="72" x="1063.427" y="786.0424">Escribir en</text><text fill="#000000" font-family="sans-serif" font-size="14" lengthAdjust="spacing" textLength="30" x="1084.427" y="802.3393">Aux/</text></g><g id="elem_BACK1"><ellipse cx="542.5629" cy="624.1035" fill="#E6E6FA" rx="104.5329" ry="23.3066" style="stroke:#00008B;stroke-width:0.5;"/><text fill="#000000" font-family="sans-serif" font-size="14" lengthAdjust="spacing" textLength="174" x="455.5629" y="626.9501">Dataset.upload_dataset()</text></g><g id="elem_BACK2"><ellipse cx="320.318" cy="624.1545" fill="#E6E6FA" rx="82.288" ry="18.8576" style="stroke:#00008B;stroke-width:0.5;"/><text fill="#000000" font-family="sans-serif" font-size="14" lengthAdjust="spacing" textLength="124" x="257.4805" y="627.2807">get_data_folders()</text></g><!--MD5=[8fc3522a43f8c7199df5e09e5bb0188e]
entity user--><g id="elem_user"><ellipse cx="2132.53" cy="51.2969" fill="#ADD8E6" rx="8" ry="8" style="stroke:#00008B;stroke-width:0.5;"/><path d="M2132.53,59.2969 L2132.53,86.2969 M2119.53,67.2969 L2145.53,67.2969 M2132.53,86.2969 L2119.53,101.2969 M2132.53,86.2969 L2145.53,101.2969 " fill="none" style="stroke:#00008B;stroke-width:0.5;"/><text fill="#000000" font-family="sans-serif" font-size="14" lengthAdjust="spacing" textLength="52" x="2090.53" y="115.792">Usuario</text><text fill="#000000" font-family="sans-serif" font-size="14" lengthAdjust="spacing" textLength="84" x="2090.53" y="132.0889">Investigador</text></g><g id="elem_GMN725"><path d="M2959.03,242.7969 L2959.03,343.5938 L3312.03,343.5938 L3312.03,252.7969 L3302.03,242.7969 L2959.03,242.7969 " fill="#FFFFE0" style="stroke:#181818;stroke-width:0.5;"/><path d="M3302.03,242.7969 L3302.03,252.7969 L3312.03,252.7969 L3302.03,242.7969 " fill="#FFFFE0" style="stroke:#181818;stroke-width:1.0;"/><text fill="#000000" font-family="sans-serif" font-size="13" font-weight="bold" lengthAdjust="spacing" textLength="40" x="2965.03" y="259.8638">Flujo:</text><text fill="#000000" font-family="sans-serif" font-size="13" lengthAdjust="spacing" textLength="256" x="2965.03" y="274.9966">1. Usuario hace clic en "Cargar Dataset"</text><text fill="#000000" font-family="sans-serif" font-size="13" lengthAdjust="spacing" textLength="230" x="2965.03" y="290.1294">2. Sistema busca datasets en Data/</text><text fill="#000000" font-family="sans-serif" font-size="13" lengthAdjust="spacing" textLength="268" x="2965.03" y="305.2622">3. Filtra los que NO tienen Aux/ procesado</text><text fill="#000000" font-family="sans-serif" font-size="13" lengthAdjust="spacing" textLength="281" x="2965.03" y="320.395">4. Valida que tengan archivos .bdf/.edf/.vhdr</text><text fill="#000000" font-family="sans-serif" font-size="13" lengthAdjust="spacing" textLength="332" x="2965.03" y="335.5278">5. Muestra lista de pendientes con boton (refrescar)</text></g><g id="elem_GMN728"><path d="M3347.53,242.7969 L3347.53,343.5938 L3623.53,343.5938 L3623.53,252.7969 L3613.53,242.7969 L3347.53,242.7969 " fill="#FFFFE0" style="stroke:#181818;stroke-width:0.5;"/><path d="M3613.53,242.7969 L3613.53,252.7969 L3623.53,252.7969 L3613.53,242.7969 " fill="#FFFFE0" style="stroke:#181818;stroke-width:1.0;"/><text fill="#000000" font-family="sans-serif" font-size="13" font-weight="bold" lengthAdjust="spacing" textLength="40" x="3353.53" y="259.8638">Flujo:</text><text fill="#000000" font-family="sans-serif" font-size="13" lengthAdjust="spacing" textLength="255" x="3353.53" y="274.9966">1. Usuario hace clic en "Listar Datasets"</text><text fill="#000000" font-family="sans-serif" font-size="13" lengthAdjust="spacing" textLength="223" x="3353.53" y="290.1294">2. Sistema busca carpetas en Aux/</text><text fill="#000000" font-family="sans-serif" font-size="13" lengthAdjust="spacing" textLength="228" x="3353.53" y="305.2622">3. Verifica que tengan archivos .npy</text><text fill="#000000" font-family="sans-serif" font-size="13" lengthAdjust="spacing" textLength="233" x="3353.53" y="320.395">4. Verifica metadata JSON (opcional)</text><text fill="#000000" font-family="sans-serif" font-size="13" lengthAdjust="spacing" textLength="225" x="3353.53" y="335.5278">5. Muestra lista de procesados (ok)</text></g><g id="elem_GMN731"><path d="M3658.53,227.7969 L3658.53,358.8594 L3944.53,358.8594 L3944.53,237.7969 L3934.53,227.7969 L3658.53,227.7969 " fill="#FFFFE0" style="stroke:#181818;stroke-width:0.5;"/><path d="M3934.53,227.7969 L3934.53,237.7969 L3944.53,237.7969 L3934.53,227.7969 " fill="#FFFFE0" style="stroke:#181818;stroke-width:1.0;"/><text fill="#000000" font-family="sans-serif" font-size="13" font-weight="bold" lengthAdjust="spacing" textLength="40" x="3664.53" y="244.8638">Flujo:</text><text fill="#000000" font-family="sans-serif" font-size="13" lengthAdjust="spacing" textLength="265" x="3664.53" y="259.9966">1. Usuario hace clic en dataset pendiente</text><text fill="#000000" font-family="sans-serif" font-size="13" lengthAdjust="spacing" textLength="234" x="3664.53" y="275.1294">2. Valida que exista Data/{nombre}/</text><text fill="#000000" font-family="sans-serif" font-size="13" lengthAdjust="spacing" textLength="211" x="3664.53" y="290.2622">3. Valida que tenga archivos EEG</text><text fill="#000000" font-family="sans-serif" font-size="13" lengthAdjust="spacing" textLength="235" x="3664.53" y="305.395">4. Llama a Dataset.upload_dataset()</text><text fill="#000000" font-family="sans-serif" font-size="13" lengthAdjust="spacing" textLength="265" x="3664.53" y="320.5278">5. Genera .npy, Labels, Events, metadata</text><text fill="#000000" font-family="sans-serif" font-size="13" lengthAdjust="spacing" textLength="220" x="3664.53" y="335.6606">6. Muestra feedback de éxito/error</text><text fill="#000000" font-family="sans-serif" font-size="13" lengthAdjust="spacing" textLength="199" x="3664.53" y="350.7935">7. Actualiza lista de pendientes</text></g><g id="elem_GMN734"><path d="M3980.03,257.7969 L3980.03,328.3281 L4269.03,328.3281 L4269.03,267.7969 L4259.03,257.7969 L3980.03,257.7969 " fill="#FFFFE0" style="stroke:#181818;stroke-width:0.5;"/><path d="M4259.03,257.7969 L4259.03,267.7969 L4269.03,267.7969 L4259.03,257.7969 " fill="#FFFFE0" style="stroke:#181818;stroke-width:1.0;"/><text fill="#000000" font-family="sans-serif" font-size="13" font-weight="bold" lengthAdjust="spacing" textLength="40" x="3986.03" y="274.8638">Flujo:</text><text fill="#000000" font-family="sans-serif" font-size="13" lengthAdjust="spacing" textLength="268" x="3986.03" y="289.9966">1. Usuario hace clic en dataset procesado</text><text fill="#000000" font-family="sans-serif" font-size="13" lengthAdjust="spacing" textLength="216" x="3986.03" y="305.1294">2. Guarda nombre en store global</text><text fill="#000000" font-family="sans-serif" font-size="13" lengthAdjust="spacing" textLength="183" x="3986.03" y="320.2622">3. Redirige a página /dataset</text></g><g id="elem_GMN737"><path d="M2958.53,581.2969 L2958.53,666.9609 L3182.53,666.9609 L3182.53,591.2969 L3172.53,581.2969 L2958.53,581.2969 " fill="#FFFFE0" style="stroke:#181818;stroke-width:0.5;"/><path d="M3172.53,581.2969 L3172.53,591.2969 L3182.53,591.2969 L3172.53,581.2969 " fill="#FFFFE0" style="stroke:#181818;stroke-width:1.0;"/><text fill="#000000" font-family="sans-serif" font-size="13" font-weight="bold" lengthAdjust="spacing" textLength="170" x="2964.53" y="598.3638">Criterios de validación:</text><text fill="#000000" font-family="sans-serif" font-size="13" lengthAdjust="spacing" textLength="203" x="2964.53" y="613.4966">- Dataset en Data/ con archivos</text><text fill="#000000" font-family="sans-serif" font-size="13" lengthAdjust="spacing" textLength="104" x="2972.53" y="628.6294">.bdf, .edf o .vhdr</text><text fill="#000000" font-family="sans-serif" font-size="13" lengthAdjust="spacing" textLength="194" x="2964.53" y="643.7622">- NO tiene Aux/{nombre}/ con</text><text fill="#000000" font-family="sans-serif" font-size="13" lengthAdjust="spacing" textLength="162" x="2972.53" y="658.895">archivos .npy procesados</text></g><g id="elem_GMN740"><path d="M815.53,588.7969 L815.53,659.3281 L1095.53,659.3281 L1095.53,598.7969 L1085.53,588.7969 L815.53,588.7969 " fill="#FFFFE0" style="stroke:#181818;stroke-width:0.5;"/><path d="M1085.53,588.7969 L1085.53,598.7969 L1095.53,598.7969 L1085.53,588.7969 " fill="#FFFFE0" style="stroke:#181818;stroke-width:1.0;"/><text fill="#000000" font-family="sans-serif" font-size="13" font-weight="bold" lengthAdjust="spacing" textLength="170" x="821.53" y="605.8638">Criterios de validación:</text><text fill="#000000" font-family="sans-serif" font-size="13" lengthAdjust="spacing" textLength="204" x="821.53" y="620.9966">- Carpeta Aux/{nombre}/ existe</text><text fill="#000000" font-family="sans-serif" font-size="13" lengthAdjust="spacing" textLength="209" x="821.53" y="636.1294">- Tiene archivos .npy procesados</text><text fill="#000000" font-family="sans-serif" font-size="13" lengthAdjust="spacing" textLength="259" x="821.53" y="651.2622">- Opcionalmente dataset_metadata.json</text></g><g id="elem_GMN743"><path d="M1131.03,581.2969 L1131.03,666.9609 L1408.03,666.9609 L1408.03,591.2969 L1398.03,581.2969 L1131.03,581.2969 " fill="#FFFFE0" style="stroke:#181818;stroke-width:0.5;"/><path d="M1398.03,581.2969 L1398.03,591.2969 L1408.03,591.2969 L1398.03,581.2969 " fill="#FFFFE0" style="stroke:#181818;stroke-width:1.0;"/><text fill="#000000" font-family="sans-serif" font-size="13" font-weight="bold" lengthAdjust="spacing" textLength="151" x="1137.03" y="598.3638">Archivos generados:</text><text fill="#000000" font-family="sans-serif" font-size="13" lengthAdjust="spacing" textLength="181" x="1137.03" y="613.4966">- Aux/nombre/.npy (señales)</text><text fill="#000000" font-family="sans-serif" font-size="13" lengthAdjust="spacing" textLength="179" x="1137.03" y="628.6294">- Aux/{nombre}/Labels/.npy</text><text fill="#000000" font-family="sans-serif" font-size="13" lengthAdjust="spacing" textLength="181" x="1137.03" y="643.7622">- Aux/{nombre}/Events/.npy</text><text fill="#000000" font-family="sans-serif" font-size="13" lengthAdjust="spacing" textLength="256" x="1137.03" y="658.895">- Aux/{nombre}/dataset_metadata.json</text></g><!--MD5=[e71913910ae60f5842a843a20d6ecd39]
link user to UC1--><g id="link_user_UC1"><path d="M2090.24,100.0269 C2040.51,112.2269 1956.04,135.2769 1887.53,165.7969 C1853.94,180.7669 1847.15,187.9169 1816.53,208.2969 C1789.37,226.3769 1759.72,248.2869 1737.48,265.2069 " fill="none" id="user-to-UC1" style="stroke:#181818;stroke-width:1.0;"/><polygon fill="#181818" points="1733.41,268.2969,1742.9921,266.0201,1737.3858,265.2649,1738.141,259.6587,1733.41,268.2969" style="stroke:#181818;stroke-width:1.0;"/><text fill="#000000" font-family="sans-serif" font-size="13" lengthAdjust="spacing" textLength="83" x="1896.03" y="178.8638">Clic en boton</text><text fill="#000000" font-family="sans-serif" font-size="13" lengthAdjust="spacing" textLength="98" x="1888.53" y="193.9966">Cargar Dataset</text></g><!--MD5=[20aeaa20d1880359803c0703a4b24425]
link user to UC2--><g id="link_user_UC2"><path d="M2090.32,116.5269 C2069.85,130.1169 2045.44,147.6469 2025.53,165.7969 C1992.11,196.2669 1959.16,236.8069 1938.61,263.6869 " fill="none" id="user-to-UC2" style="stroke:#181818;stroke-width:1.0;"/><polygon fill="#181818" points="1935.43,267.8769,1944.06,263.131,1938.4551,263.8958,1937.6902,258.2909,1935.43,267.8769" style="stroke:#181818;stroke-width:1.0;"/><text fill="#000000" font-family="sans-serif" font-size="13" lengthAdjust="spacing" textLength="83" x="2033.53" y="178.8638">Clic en boton</text><text fill="#000000" font-family="sans-serif" font-size="13" lengthAdjust="spacing" textLength="97" x="2026.53" y="193.9966">Listar Datasets</text></g><!--MD5=[17d4c6462e07b4f1b5dbb0e87d08d5e6]
link user to UC3--><g id="link_user_UC3"><path d="M2132.53,135.8769 C2132.53,174.4269 2132.53,228.5769 2132.53,261.9969 " fill="none" id="user-to-UC3" style="stroke:#181818;stroke-width:1.0;"/><polygon fill="#181818" points="2132.53,267.1769,2136.53,258.1769,2132.53,262.1769,2128.53,258.1769,2132.53,267.1769" style="stroke:#181818;stroke-width:1.0;"/><text fill="#000000" font-family="sans-serif" font-size="13" lengthAdjust="spacing" textLength="95" x="2133.53" y="178.8638">Clic en dataset</text><text fill="#000000" font-family="sans-serif" font-size="13" lengthAdjust="spacing" textLength="64" x="2149.03" y="193.9966">pendiente</text></g><!--MD5=[b2cfa0738cc752f103aa40c770997175]
link user to UC4--><g id="link_user_UC4"><path d="M2174.68,103.3969 C2284.05,137.3869 2577.76,228.6569 2712.84,270.6369 " fill="none" id="user-to-UC4" style="stroke:#181818;stroke-width:1.0;"/><polygon fill="#181818" points="2717.97,272.2269,2710.5661,265.7321,2713.1961,270.7404,2708.1877,273.3703,2717.97,272.2269" style="stroke:#181818;stroke-width:1.0;"/><text fill="#000000" font-family="sans-serif" font-size="13" lengthAdjust="spacing" textLength="95" x="2477.53" y="178.8638">Clic en dataset</text><text fill="#000000" font-family="sans-serif" font-size="13" lengthAdjust="spacing" textLength="67" x="2491.53" y="193.9966">procesado</text></g><!--MD5=[aa9d2cfd37f9b85e856ad6a1e4475780]
link UC1 to UC6--><g id="link_UC1_UC6"><path d="M1739.73,317.3569 C1761.63,330.4169 1790.13,346.5369 1816.53,358.7969 C1900.44,397.7569 2001.26,433.2269 2066.08,454.6569 " fill="none" id="UC1-to-UC6" style="stroke:#181818;stroke-width:1.0;stroke-dasharray:7.0,7.0;"/><polygon fill="#181818" points="2071.07,456.2969,2063.7668,449.6891,2066.3195,454.7372,2061.2713,457.2899,2071.07,456.2969" style="stroke:#181818;stroke-width:1.0;"/><text fill="#000000" font-family="sans-serif" font-size="13" lengthAdjust="spacing" textLength="61" x="1962.53" y="409.3638">«include»</text></g><!--MD5=[0e03e71717fa56e9ad50fad1d1b97551]
link UC1 to EXT1--><g id="link_UC1_EXT1"><path d="M1606.99,294.9969 C1293.58,297.9969 309.98,313.4069 190.53,388.7969 C128.62,427.8769 128.9,461.9269 110.53,532.7969 C90.53,609.9969 178.3,653.6069 221.53,674.2969 C413.81,766.3169 979,650.0269 1179.53,722.2969 C1203.51,730.9369 1226.47,748.1869 1243.33,763.1469 " fill="none" id="UC1-to-EXT1" style="stroke:#181818;stroke-width:1.0;stroke-dasharray:7.0,7.0;"/><polygon fill="#181818" points="1247.05,766.4969,1243.0362,757.503,1243.3335,763.1521,1237.6845,763.4494,1247.05,766.4969" style="stroke:#181818;stroke-width:1.0;"/><text fill="#000000" font-family="sans-serif" font-size="13" lengthAdjust="spacing" textLength="61" x="111.53" y="545.8638">«include»</text></g><!--MD5=[6b411fc5e8afd0b01d39d115ef83b312]
link UC1 to EXT2--><g id="link_UC1_EXT2"><path d="M1607.19,295.4269 C1288.34,299.8369 271.97,319.2769 143.53,388.7969 C73.41,426.7569 61.58,457.0969 36.53,532.7969 C6,625.0769 67.13,681.2369 158.53,714.2969 C284.42,759.8369 681.02,780.5269 850.5,787.4669 " fill="none" id="UC1-to-EXT2" style="stroke:#181818;stroke-width:1.0;stroke-dasharray:7.0,7.0;"/><polygon fill="#181818" points="855.69,787.6769,846.8571,783.3204,850.694,787.477,846.5373,791.314,855.69,787.6769" style="stroke:#181818;stroke-width:1.0;"/><text fill="#000000" font-family="sans-serif" font-size="13" lengthAdjust="spacing" textLength="61" x="37.53" y="545.8638">«include»</text></g><!--MD5=[c9727c37d064c4283690b4b9222bd749]
link UC2 to UC7--><g id="link_UC2_UC7"><path d="M1886.92,317.6269 C1867.43,331.4469 1841.11,348.2669 1815.53,358.7969 C1758.3,382.3569 1736.86,365.4569 1679.53,388.7969 C1641.67,404.2069 1602.47,429.5169 1575.21,448.8669 " fill="none" id="UC2-to-UC7" style="stroke:#181818;stroke-width:1.0;stroke-dasharray:7.0,7.0;"/><polygon fill="#181818" points="1570.94,451.9169,1580.5866,449.9311,1575.0058,449.0066,1575.9302,443.4258,1570.94,451.9169" style="stroke:#181818;stroke-width:1.0;"/><text fill="#000000" font-family="sans-serif" font-size="13" lengthAdjust="spacing" textLength="61" x="1680.53" y="409.3638">«include»</text></g><!--MD5=[b4b7112b03f7fc8536638bab130c7630]
link UC2 to EXT2--><g id="link_UC2_EXT2"><path d="M1889.19,317.7869 C1869.76,332.4269 1842.66,350.0869 1815.53,358.7969 C1705.12,394.2469 1409.97,377.6969 1294.53,388.7969 C1054.26,411.9069 376.88,373.0369 221.53,557.7969 C47.35,764.9669 631.6,788.7669 849.71,790.5769 " fill="none" id="UC2-to-EXT2" style="stroke:#181818;stroke-width:1.0;stroke-dasharray:7.0,7.0;"/><polygon fill="#181818" points="854.79,790.6169,845.8246,786.5399,849.7902,790.574,845.756,794.5396,854.79,790.6169" style="stroke:#181818;stroke-width:1.0;"/><text fill="#000000" font-family="sans-serif" font-size="13" lengthAdjust="spacing" textLength="61" x="246.53" y="545.8638">«include»</text></g><!--MD5=[7d564253072db69cb90ecf4633fad815]
link UC3 to UC8--><g id="link_UC3_UC8"><path d="M2094.94,317.5069 C2054.19,344.5869 1990.09,393.0769 1953.53,450.7969 C1925.27,495.4169 1912.95,556.6569 1907.85,592.8969 " fill="none" id="UC3-to-UC8" style="stroke:#181818;stroke-width:1.0;stroke-dasharray:7.0,7.0;"/><polygon fill="#181818" points="1907.15,598.0569,1912.3218,589.6752,1907.8211,593.1021,1904.3942,588.6014,1907.15,598.0569" style="stroke:#181818;stroke-width:1.0;"/><text fill="#000000" font-family="sans-serif" font-size="13" lengthAdjust="spacing" textLength="61" x="1954.53" y="481.3638">«include»</text></g><!--MD5=[515763951a3f75514ce01f42b7286b7e]
link UC3 to BACK1--><g id="link_UC3_BACK1"><path d="M2100.21,317.9469 C2078.53,332.4569 2048.7,349.9069 2019.53,358.7969 C1845.19,411.9569 1791.52,367.2569 1610.53,388.7969 C1220.48,435.2069 1114.01,417.4269 738.53,532.7969 C683.28,549.7769 623.46,579.1469 584.63,599.8069 " fill="none" id="UC3-to-BACK1" style="stroke:#181818;stroke-width:1.0;stroke-dasharray:7.0,7.0;"/><polygon fill="#181818" points="580.01,602.2869,589.8332,601.576,584.4206,599.9317,586.0649,594.5191,580.01,602.2869" style="stroke:#181818;stroke-width:1.0;"/><text fill="#000000" font-family="sans-serif" font-size="13" lengthAdjust="spacing" textLength="61" x="1062.53" y="481.3638">«include»</text></g><!--MD5=[26e80278f6660e9e2e60dd868e91f3d3]
link UC3 to UC9--><g id="link_UC3_UC9"><path d="M2099.6,317.8569 C2077.91,332.1269 2048.3,349.3569 2019.53,358.7969 C1964.48,376.8569 1799.08,345.5369 1760.53,388.7969 C1746.96,404.0269 1750.12,427.2369 1756.18,445.8569 " fill="none" id="UC3-to-UC9" style="stroke:#181818;stroke-width:1.0;stroke-dasharray:7.0,7.0;"/><polygon fill="#181818" points="1757.95,450.9769,1758.7748,441.1626,1756.3091,446.2538,1751.2179,443.7881,1757.95,450.9769" style="stroke:#181818;stroke-width:1.0;"/><text fill="#000000" font-family="sans-serif" font-size="13" lengthAdjust="spacing" textLength="61" x="1761.53" y="409.3638">«include»</text></g><!--MD5=[d36d9d1fce2da1baa3a527d2c2e4ea07]
link UC3 to UC11--><g id="link_UC3_UC11"><path d="M2163.26,318.0269 C2206.85,351.6969 2286.46,413.1869 2332.37,448.6369 " fill="none" id="UC3-to-UC11" style="stroke:#181818;stroke-width:1.0;stroke-dasharray:7.0,7.0;"/><polygon fill="#181818" points="2336.43,451.7769,2331.7533,443.1092,2332.4733,448.72,2326.8624,449.44,2336.43,451.7769" style="stroke:#181818;stroke-width:1.0;"/><text fill="#000000" font-family="sans-serif" font-size="13" lengthAdjust="spacing" textLength="61" x="2291.53" y="409.3638">«include»</text></g><!--MD5=[89bf67fa65eee46e4bd1d08e44713b1a]
link UC3 to UC6--><g id="link_UC3_UC6"><path d="M2132.53,319.5369 C2132.53,352.5869 2132.53,410.4569 2132.53,445.7369 " fill="none" id="UC3-to-UC6" style="stroke:#181818;stroke-width:1.0;stroke-dasharray:7.0,7.0;"/><polygon fill="#181818" points="2132.53,450.7769,2136.53,441.7769,2132.53,445.7769,2128.53,441.7769,2132.53,450.7769" style="stroke:#181818;stroke-width:1.0;"/><text fill="#000000" font-family="sans-serif" font-size="13" lengthAdjust="spacing" textLength="61" x="2149.53" y="401.8638">«include»</text><text fill="#000000" font-family="sans-serif" font-size="13" lengthAdjust="spacing" textLength="93" x="2133.53" y="416.9966">Actualizar lista</text></g><!--MD5=[dcf76e18411a50f4e91d9a1ab3487e1d]
link UC4 to UC10--><g id="link_UC4_UC10"><path d="M2759.47,318.7769 C2727.98,352.1969 2671.65,411.9869 2638.33,447.3569 " fill="none" id="UC4-to-UC10" style="stroke:#181818;stroke-width:1.0;stroke-dasharray:7.0,7.0;"/><polygon fill="#181818" points="2634.78,451.1269,2643.8611,447.3145,2638.2068,447.4859,2638.0355,441.8316,2634.78,451.1269" style="stroke:#181818;stroke-width:1.0;"/><text fill="#000000" font-family="sans-serif" font-size="13" lengthAdjust="spacing" textLength="61" x="2692.53" y="409.3638">«include»</text></g><!--MD5=[daf714cc2b0df3c5c19ea576b0489a5d]
link UC4 to UC5--><g id="link_UC4_UC5"><path d="M2790.6,319.5369 C2801.16,352.5869 2819.65,410.4569 2830.93,445.7369 " fill="none" id="UC4-to-UC5" style="stroke:#181818;stroke-width:1.0;stroke-dasharray:7.0,7.0;"/><polygon fill="#181818" points="2832.54,450.7769,2833.595,440.9847,2831.0104,446.0166,2825.9785,443.432,2832.54,450.7769" style="stroke:#181818;stroke-width:1.0;"/><text fill="#000000" font-family="sans-serif" font-size="13" lengthAdjust="spacing" textLength="61" x="2822.53" y="409.3638">«include»</text></g><!--MD5=[7f462fdc30aadecb4b993a46a6f4dc93]
link UC6 to EXT1--><g id="link_UC6_EXT1"><path d="M2139.04,503.0469 C2147.67,541.8169 2159.04,617.4969 2133.53,674.2969 C2122.57,698.7069 2113.08,703.6369 2088.53,714.2969 C1957.04,771.3869 1527.69,785.6769 1349.33,789.1869 " fill="none" id="UC6-to-EXT1" style="stroke:#181818;stroke-width:1.0;stroke-dasharray:7.0,7.0;"/><polygon fill="#181818" points="1344.13,789.2869,1353.2082,793.1061,1349.129,789.1869,1353.0482,785.1077,1344.13,789.2869" style="stroke:#181818;stroke-width:1.0;"/><text fill="#000000" font-family="sans-serif" font-size="13" lengthAdjust="spacing" textLength="61" x="2149.53" y="628.8638">«include»</text></g><!--MD5=[d1ac342c79b19742b7390b924311e43d]
link UC6 to EXT2--><g id="link_UC6_EXT2"><path d="M2107.81,502.2069 C2093.39,517.3169 2075.54,537.6369 2062.53,557.7969 C2031.7,605.5969 2055.32,640.5369 2009.53,674.2969 C1896.3,757.7769 1835.88,704.5569 1695.53,714.2969 C1658.07,716.8969 1055.1,710.2369 1019.53,722.2969 C995.22,730.5369 972.11,747.9769 955.26,763.1269 " fill="none" id="UC6-to-EXT2" style="stroke:#181818;stroke-width:1.0;stroke-dasharray:7.0,7.0;"/><polygon fill="#181818" points="951.55,766.5269,960.8966,763.4218,955.2458,763.1593,955.5084,757.5085,951.55,766.5269" style="stroke:#181818;stroke-width:1.0;"/><text fill="#000000" font-family="sans-serif" font-size="13" lengthAdjust="spacing" textLength="61" x="2063.53" y="628.8638">«include»</text></g><!--MD5=[90718e9dc9c3735200d2f14efa55c8cd]
link UC6 to UC8--><g id="link_UC6_UC8"><path d="M2057.77,493.8669 C2029.6,502.3369 1998.38,514.8269 1973.53,532.7969 C1951.21,548.9469 1932.73,574.3569 1920.53,594.1469 " fill="none" id="UC6-to-UC8" style="stroke:#181818;stroke-width:1.0;stroke-dasharray:7.0,7.0;"/><polygon fill="#181818" points="1917.88,598.5269,1925.9763,592.9189,1920.4797,594.2559,1919.1427,588.7593,1917.88,598.5269" style="stroke:#181818;stroke-width:1.0;"/><text fill="#000000" font-family="sans-serif" font-size="13" lengthAdjust="spacing" textLength="61" x="1974.53" y="545.8638">«include»</text></g><!--MD5=[b27f958b78f7c2098afc2dce2a2b5376]
link UC7 to EXT2--><g id="link_UC7_EXT2"><path d="M1441.22,480.3369 C1237.03,486.6469 782.11,506.3569 735.53,557.7969 C700.78,596.1769 710.04,629.2269 735.53,674.2969 C763.76,724.1969 822.99,754.9969 868.43,772.1969 " fill="none" id="UC7-to-EXT2" style="stroke:#181818;stroke-width:1.0;stroke-dasharray:7.0,7.0;"/><polygon fill="#181818" points="873.34,774.0269,866.2991,767.1403,868.6537,772.2838,863.5101,774.6384,873.34,774.0269" style="stroke:#181818;stroke-width:1.0;"/><text fill="#000000" font-family="sans-serif" font-size="13" lengthAdjust="spacing" textLength="61" x="736.53" y="628.8638">«include»</text></g><!--MD5=[95dbcd1f25b1a9a86e52d4e25e10a938]
link UC8 to EXT1--><g id="link_UC8_EXT1"><path d="M1840.25,642.0269 C1718.23,673.7869 1454.42,742.4369 1333.45,773.9169 " fill="none" id="UC8-to-EXT1" style="stroke:#181818;stroke-width:1.0;stroke-dasharray:7.0,7.0;"/><polygon fill="#181818" points="1328.51,775.2069,1338.2307,776.7904,1333.3461,773.9372,1336.1993,769.0526,1328.51,775.2069" style="stroke:#181818;stroke-width:1.0;"/><text fill="#000000" font-family="sans-serif" font-size="13" lengthAdjust="spacing" textLength="61" x="1625.53" y="710.3638">«include»</text></g><!--MD5=[8278c5d1d5ca76c7ad13a0c4e4a8f78a]
link UC9 to EXT3--><g id="link_UC9_EXT3"><path d="M1736.69,501.4969 C1677.5,543.0369 1547.71,628.8869 1425.53,674.2969 C1321.12,713.1069 1279.91,673.9869 1179.53,722.2969 C1158.94,732.2069 1139.33,748.7169 1124.68,762.9969 " fill="none" id="UC9-to-EXT3" style="stroke:#181818;stroke-width:1.0;stroke-dasharray:7.0,7.0;"/><polygon fill="#181818" points="1121.06,766.5669,1130.2736,763.0871,1124.6169,763.0528,1124.6512,757.3961,1121.06,766.5669" style="stroke:#181818;stroke-width:1.0;"/><text fill="#000000" font-family="sans-serif" font-size="13" lengthAdjust="spacing" textLength="61" x="1651.53" y="628.8638">«include»</text></g><!--MD5=[bd539e8ae72c8a65cfd0ed7a2a6ea76d]
link UC9 to BACK1--><g id="link_UC9_BACK1"><path d="M1700.53,494.9169 C1686.07,497.9869 1670.87,500.8269 1656.53,502.7969 C1223.49,562.4269 1097.16,446.1469 674.53,557.7969 C640.98,566.6569 605.92,584.5269 580.38,599.3569 " fill="none" id="UC9-to-BACK1" style="stroke:#181818;stroke-width:1.0;stroke-dasharray:7.0,7.0;"/><polygon fill="#181818" points="576.04,601.8969,585.8273,600.797,580.3537,599.3686,581.7821,593.8951,576.04,601.8969" style="stroke:#181818;stroke-width:1.0;"/><text fill="#000000" font-family="sans-serif" font-size="13" lengthAdjust="spacing" textLength="61" x="771.53" y="545.8638">«include»</text></g><!--MD5=[626bef316a49f0b96296ca1d7255811f]
link UC5 to user--><g id="link_UC5_user"><path d="M2926.59,475.4569 C3223.81,473.3969 4194.11,458.9969 4286.53,358.7969 C4331.88,309.6269 4332.52,256.8669 4286.53,208.2969 C4211.58,129.1269 2490.53,96.3469 2180.24,91.0769 " fill="none" id="UC5-to-user" style="stroke:#181818;stroke-width:1.0;"/><polygon fill="#181818" points="2174.9,90.9869,2183.8301,95.1406,2179.8993,91.0726,2183.9672,87.1417,2174.9,90.9869" style="stroke:#181818;stroke-width:1.0;"/><text fill="#000000" font-family="sans-serif" font-size="13" lengthAdjust="spacing" textLength="66" x="4321.53" y="290.3638">Navegar a</text><text fill="#000000" font-family="sans-serif" font-size="13" lengthAdjust="spacing" textLength="53" x="4328.03" y="305.4966">/dataset</text></g><!--MD5=[9fad0c8cfb56462df156c54b2ea5dc2b]
link UC1 to GMN725--><g id="link_UC1_GMN725"><path d="M1720.64,267.6869 C1743.25,238.1469 1785.01,191.1969 1834.03,172.0469 C1946.95,127.9369 2807.93,140.7269 2925.03,172.0469 C2976.78,185.8869 3028.99,215.8369 3068.47,242.4969 " fill="none" id="UC1-GMN725" style="stroke:#181818;stroke-width:1.0;stroke-dasharray:7.0,7.0;"/></g><!--MD5=[c7fafb63c6ef57633379a0f45b262ad3]
link UC2 to GMN728--><g id="link_UC2_GMN728"><path d="M1933.42,267.7469 C1953.42,238.2669 1990.82,191.3869 2037.03,172.0469 C2102.38,144.7069 3244.47,150.7769 3312.03,172.0469 C3356.55,186.0569 3399.6,216.0069 3431.68,242.6369 " fill="none" id="UC2-GMN728" style="stroke:#181818;stroke-width:1.0;stroke-dasharray:7.0,7.0;"/></g><!--MD5=[989e5d54bf9736ec96ca109deade0408]
link UC3 to GMN731--><g id="link_UC3_GMN731"><path d="M2197.06,273.9469 C2297.63,244.9069 2498.35,191.3969 2673.03,172.0469 C2883.08,148.7769 3422.12,109.6669 3624.03,172.0469 C3660.94,183.4469 3697.02,205.4469 3726.9,227.6169 " fill="none" id="UC3-GMN731" style="stroke:#181818;stroke-width:1.0;stroke-dasharray:7.0,7.0;"/></g><!--MD5=[c718388e6f125de038feef36a16236a4]
link UC4 to GMN734--><g id="link_UC4_GMN734"><path d="M2808.47,267.7869 C2840.65,238.1069 2898.68,190.7769 2959.03,172.0469 C3063.67,139.5669 3840.28,139.9769 3945.03,172.0469 C3999.51,188.7269 4052.38,228.1269 4086.46,257.5169 " fill="none" id="UC4-GMN734" style="stroke:#181818;stroke-width:1.0;stroke-dasharray:7.0,7.0;"/></g><!--MD5=[15906c914d5745ea88f90ff2ba600c28]
link UC6 to GMN737--><g id="link_UC6_GMN737"><path d="M2204.35,494.6969 C2219.22,497.7569 2234.84,500.6569 2249.53,502.7969 C2555.27,547.3969 2645.27,473.5769 2942.53,557.7969 C2962.11,563.3469 2982.19,571.9969 3000.48,581.2169 " fill="none" id="UC6-GMN737" style="stroke:#181818;stroke-width:1.0;stroke-dasharray:7.0,7.0;"/></g><!--MD5=[4233e8f8bfd93b7140c16acecf0bea4d]
link UC7 to GMN740--><g id="link_UC7_GMN740"><path d="M1442.23,481.8269 C1321.22,488.0469 1122.44,502.5669 1055.53,532.7969 C1027.58,545.4269 1002.05,568.8269 983.78,588.6669 " fill="none" id="UC7-GMN740" style="stroke:#181818;stroke-width:1.0;stroke-dasharray:7.0,7.0;"/></g><!--MD5=[30a669bf183533793a1802e00d92ec49]
link UC9 to GMN743--><g id="link_UC9_GMN743"><path d="M1698.56,494.3169 C1684.66,497.3169 1670.17,500.2869 1656.53,502.7969 C1566.4,519.3769 1540.01,505.4869 1452.53,532.7969 C1414.47,544.6769 1374.52,563.5969 1341.69,581.0669 " fill="none" id="UC9-GMN743" style="stroke:#181818;stroke-width:1.0;stroke-dasharray:7.0,7.0;"/></g><!--MD5=[36418c67ac8ff1be4d22ee96cc04fa38]
@startuml
title Casos de Uso - Página Cargar Datos (cargar_datos.py)

' Actores
actor "Usuario\nInvestigador" as user #lightblue

' Sistema boundary
rectangle "Sistema EGG-lab\n(Página Cargar Datos)" {

  ' Casos de uso principales
  usecase "Mostrar Datasets\nPendientes" as UC1 #lightgreen
  usecase "Listar Datasets\nProcesados" as UC2 #lightblue
  usecase "Procesar Dataset\nPendiente" as UC3 #yellow
  usecase "Seleccionar Dataset\nProcesado" as UC4 #orange
  usecase "Redirigir a Vista\nde Dataset" as UC5 #pink

  ' Casos de uso secundarios / helpers
  usecase "Obtener Datasets\nPendientes" as UC6 #lightyellow
  usecase "Obtener Datasets\nProcesados" as UC7 #lightyellow
  usecase "Validar Archivos\nEEG" as UC8 #lightyellow
  usecase "Generar Archivos\n.npy y Metadata" as UC9 #lightyellow
  usecase "Guardar Dataset en\nStore Global" as UC10 #lightyellow
  usecase "Mostrar Feedback\nde Procesamiento" as UC11 #lightyellow
}

' Sistemas externos
rectangle "Sistema de Archivos" {
  usecase "Leer Carpeta\nData/" as EXT1 #lightgray
  usecase "Leer Carpeta\nAux/" as EXT2 #lightgray
  usecase "Escribir en\nAux/" as EXT3 #lightgray
}

rectangle "Backend" {
  usecase "Dataset.upload_dataset()" as BACK1 #lavender
  usecase "get_data_folders()" as BACK2 #lavender
}

' Relaciones usuario -> casos de uso principales
user - -> UC1 : "Clic en boton\nCargar Dataset"
user - -> UC2 : "Clic en boton\nListar Datasets"
user - -> UC3 : "Clic en dataset\npendiente"
user - -> UC4 : "Clic en dataset\nprocesado"

' Relaciones entre casos de uso (include, extend)
UC1 ..> UC6 : <<include>>
UC1 ..> EXT1 : <<include>>
UC1 ..> EXT2 : <<include>>

UC2 ..> UC7 : <<include>>
UC2 ..> EXT2 : <<include>>

UC3 ..> UC8 : <<include>>
UC3 ..> BACK1 : <<include>>
UC3 ..> UC9 : <<include>>
UC3 ..> UC11 : <<include>>
UC3 ..> UC6 : <<include>>\nActualizar lista

UC4 ..> UC10 : <<include>>
UC4 ..> UC5 : <<include>>

UC6 ..> EXT1 : <<include>>
UC6 ..> EXT2 : <<include>>
UC6 ..> UC8 : <<include>>

UC7 ..> EXT2 : <<include>>

UC8 ..> EXT1 : <<include>>

UC9 ..> EXT3 : <<include>>
UC9 ..> BACK1 : <<include>>

UC5 - -> user : "Navegar a\n/dataset"

' Notas explicativas
note right of UC1
  **Flujo:**
  1. Usuario hace clic en "Cargar Dataset"
  2. Sistema busca datasets en Data/
  3. Filtra los que NO tienen Aux/ procesado
  4. Valida que tengan archivos .bdf/.edf/.vhdr
  5. Muestra lista de pendientes con boton (refrescar)
end note

note right of UC2
  **Flujo:**
  1. Usuario hace clic en "Listar Datasets"
  2. Sistema busca carpetas en Aux/
  3. Verifica que tengan archivos .npy
  4. Verifica metadata JSON (opcional)
  5. Muestra lista de procesados (ok)
end note

note right of UC3
  **Flujo:**
  1. Usuario hace clic en dataset pendiente
  2. Valida que exista Data/{nombre}/
  3. Valida que tenga archivos EEG
  4. Llama a Dataset.upload_dataset()
  5. Genera .npy, Labels, Events, metadata
  6. Muestra feedback de éxito/error
  7. Actualiza lista de pendientes
end note

note right of UC4
  **Flujo:**
  1. Usuario hace clic en dataset procesado
  2. Guarda nombre en store global
  3. Redirige a página /dataset
end note

note bottom of UC6
  **Criterios de validación:**
  - Dataset en Data/ con archivos
    .bdf, .edf o .vhdr
  - NO tiene Aux/{nombre}/ con
    archivos .npy procesados
end note

note bottom of UC7
  **Criterios de validación:**
  - Carpeta Aux/{nombre}/ existe
  - Tiene archivos .npy procesados
  - Opcionalmente dataset_metadata.json
end note

note bottom of UC9
  **Archivos generados:**
  - Aux/nombre/.npy (señales)
  - Aux/{nombre}/Labels/.npy
  - Aux/{nombre}/Events/.npy
  - Aux/{nombre}/dataset_metadata.json
end note

' Estilos
skinparam usecase {
  BackgroundColor lightblue
  BorderColor darkblue
  ArrowColor darkblue
}

skinparam actor {
  BackgroundColor lightblue
  BorderColor darkblue
}

skinparam note {
  BackgroundColor lightyellow
  BorderColor orange
}
@enduml

@startuml
title Casos de Uso - Página Cargar Datos (cargar_datos.py)

actor "Usuario\nInvestigador" as user #lightblue

rectangle "Sistema EGG-lab\n(Página Cargar Datos)" {

  usecase "Mostrar Datasets\nPendientes" as UC1 #lightgreen
  usecase "Listar Datasets\nProcesados" as UC2 #lightblue
  usecase "Procesar Dataset\nPendiente" as UC3 #yellow
  usecase "Seleccionar Dataset\nProcesado" as UC4 #orange
  usecase "Redirigir a Vista\nde Dataset" as UC5 #pink

  usecase "Obtener Datasets\nPendientes" as UC6 #lightyellow
  usecase "Obtener Datasets\nProcesados" as UC7 #lightyellow
  usecase "Validar Archivos\nEEG" as UC8 #lightyellow
  usecase "Generar Archivos\n.npy y Metadata" as UC9 #lightyellow
  usecase "Guardar Dataset en\nStore Global" as UC10 #lightyellow
  usecase "Mostrar Feedback\nde Procesamiento" as UC11 #lightyellow
}

rectangle "Sistema de Archivos" {
  usecase "Leer Carpeta\nData/" as EXT1 #lightgray
  usecase "Leer Carpeta\nAux/" as EXT2 #lightgray
  usecase "Escribir en\nAux/" as EXT3 #lightgray
}

rectangle "Backend" {
  usecase "Dataset.upload_dataset()" as BACK1 #lavender
  usecase "get_data_folders()" as BACK2 #lavender
}

user - -> UC1 : "Clic en boton\nCargar Dataset"
user - -> UC2 : "Clic en boton\nListar Datasets"
user - -> UC3 : "Clic en dataset\npendiente"
user - -> UC4 : "Clic en dataset\nprocesado"

UC1 ..> UC6 : <<include>>
UC1 ..> EXT1 : <<include>>
UC1 ..> EXT2 : <<include>>

UC2 ..> UC7 : <<include>>
UC2 ..> EXT2 : <<include>>

UC3 ..> UC8 : <<include>>
UC3 ..> BACK1 : <<include>>
UC3 ..> UC9 : <<include>>
UC3 ..> UC11 : <<include>>
UC3 ..> UC6 : <<include>>\nActualizar lista

UC4 ..> UC10 : <<include>>
UC4 ..> UC5 : <<include>>

UC6 ..> EXT1 : <<include>>
UC6 ..> EXT2 : <<include>>
UC6 ..> UC8 : <<include>>

UC7 ..> EXT2 : <<include>>

UC8 ..> EXT1 : <<include>>

UC9 ..> EXT3 : <<include>>
UC9 ..> BACK1 : <<include>>

UC5 - -> user : "Navegar a\n/dataset"

note right of UC1
  **Flujo:**
  1. Usuario hace clic en "Cargar Dataset"
  2. Sistema busca datasets en Data/
  3. Filtra los que NO tienen Aux/ procesado
  4. Valida que tengan archivos .bdf/.edf/.vhdr
  5. Muestra lista de pendientes con boton (refrescar)
end note

note right of UC2
  **Flujo:**
  1. Usuario hace clic en "Listar Datasets"
  2. Sistema busca carpetas en Aux/
  3. Verifica que tengan archivos .npy
  4. Verifica metadata JSON (opcional)
  5. Muestra lista de procesados (ok)
end note

note right of UC3
  **Flujo:**
  1. Usuario hace clic en dataset pendiente
  2. Valida que exista Data/{nombre}/
  3. Valida que tenga archivos EEG
  4. Llama a Dataset.upload_dataset()
  5. Genera .npy, Labels, Events, metadata
  6. Muestra feedback de éxito/error
  7. Actualiza lista de pendientes
end note

note right of UC4
  **Flujo:**
  1. Usuario hace clic en dataset procesado
  2. Guarda nombre en store global
  3. Redirige a página /dataset
end note

note bottom of UC6
  **Criterios de validación:**
  - Dataset en Data/ con archivos
    .bdf, .edf o .vhdr
  - NO tiene Aux/{nombre}/ con
    archivos .npy procesados
end note

note bottom of UC7
  **Criterios de validación:**
  - Carpeta Aux/{nombre}/ existe
  - Tiene archivos .npy procesados
  - Opcionalmente dataset_metadata.json
end note

note bottom of UC9
  **Archivos generados:**
  - Aux/nombre/.npy (señales)
  - Aux/{nombre}/Labels/.npy
  - Aux/{nombre}/Events/.npy
  - Aux/{nombre}/dataset_metadata.json
end note

skinparam usecase {
  BackgroundColor lightblue
  BorderColor darkblue
  ArrowColor darkblue
}

skinparam actor {
  BackgroundColor lightblue
  BorderColor darkblue
}

skinparam note {
  BackgroundColor lightyellow
  BorderColor orange
}
@enduml

PlantUML version 1.2022.7(Mon Aug 22 17:01:30 UTC 2022)
(GPL source distribution)
Java Runtime: OpenJDK Runtime Environment
JVM: OpenJDK 64-Bit Server VM
Default Encoding: UTF-8
Language: en
Country: null
--></g></svg>