<?xml version="1.0" encoding="UTF-8" standalone="no"?><svg xmlns="http://www.w3.org/2000/svg" xmlns:xlink="http://www.w3.org/1999/xlink" contentStyleType="text/css" height="287px" preserveAspectRatio="none" style="width:2761px;height:287px;background:#FFFFFF;" version="1.1" viewBox="0 0 2761 287" width="2761px" zoomAndPan="magnify"><defs/><g><rect fill="none" height="42.5938" id="_title" style="stroke:none;stroke-width:1.0;" width="321" x="1213" y="5"/><text fill="#000000" font-family="sans-serif" font-size="14" font-weight="bold" lengthAdjust="spacing" textLength="202" x="1272.5" y="22.9951">Casos de Uso (Front-End)</text><text fill="#000000" font-family="sans-serif" font-size="14" font-weight="bold" lengthAdjust="spacing" textLength="311" x="1218" y="39.292">Paso 1 — Transformación Inner Speech</text><!--MD5=[2ff75b3e652ef497b531f54d0da3618b]
cluster Página Inner Speech — Paso 1: Transformación--><g id="cluster_Página Inner Speech — Paso 1: Transformación"><rect fill="none" height="104" rx="2.5" ry="2.5" style="stroke:#181818;stroke-width:1.0;" width="2748" x="7" y="177.0938"/><text fill="#000000" font-family="sans-serif" font-size="14" font-weight="bold" lengthAdjust="spacing" textLength="374" x="1194" y="192.0889">Página Inner Speech — Paso 1: Transformación</text></g><g id="elem_UC_LoadMeta"><ellipse cx="2647.0541" cy="238.7597" fill="#F1F1F1" rx="92.5541" ry="26.1659" style="stroke:#181818;stroke-width:0.5;"/><text fill="#000000" font-family="sans-serif" font-size="14" lengthAdjust="spacing" textLength="114" x="2587.0541" y="234.3588">Cargar metadata</text><text fill="#000000" font-family="sans-serif" font-size="14" lengthAdjust="spacing" textLength="77" x="2605.5541" y="250.6556">del dataset</text></g><g id="elem_UC_ClassExplore"><ellipse cx="2439.9744" cy="238.6733" fill="#F1F1F1" rx="79.4744" ry="26.0795" style="stroke:#181818;stroke-width:0.5;"/><text fill="#000000" font-family="sans-serif" font-size="14" lengthAdjust="spacing" textLength="96" x="2389.1165" y="234.234">Explorar señal</text><text fill="#000000" font-family="sans-serif" font-size="14" lengthAdjust="spacing" textLength="71" x="2401.6165" y="250.5309">por clases</text></g><g id="elem_UC_ChannelExplore"><ellipse cx="2245.9744" cy="238.6733" fill="#F1F1F1" rx="79.4744" ry="26.0795" style="stroke:#181818;stroke-width:0.5;"/><text fill="#000000" font-family="sans-serif" font-size="14" lengthAdjust="spacing" textLength="96" x="2195.1165" y="234.234">Explorar señal</text><text fill="#000000" font-family="sans-serif" font-size="14" lengthAdjust="spacing" textLength="80" x="2203.1165" y="250.5309">por canales</text></g><g id="elem_UC_ChannelNav"><ellipse cx="2027.9092" cy="238.641" fill="#F1F1F1" rx="103.4092" ry="26.0473" style="stroke:#181818;stroke-width:0.5;"/><text fill="#000000" font-family="sans-serif" font-size="14" lengthAdjust="spacing" textLength="113" x="1971.4092" y="233.3393">Navegar canales</text><text fill="#000000" font-family="sans-serif" font-size="14" lengthAdjust="spacing" textLength="130" x="1962.9092" y="249.6361">anterior / siguiente</text></g><g id="elem_UC_SelectChannels"><ellipse cx="1779.7689" cy="238.8401" fill="#F1F1F1" rx="109.2689" ry="26.2463" style="stroke:#181818;stroke-width:0.5;"/><text fill="#000000" font-family="sans-serif" font-size="14" lengthAdjust="spacing" textLength="137" x="1708.2689" y="234.4392">Seleccionar canales</text><text fill="#000000" font-family="sans-serif" font-size="14" lengthAdjust="spacing" textLength="78" x="1737.7689" y="250.7361">específicos</text></g><g id="elem_UC_FilterClass"><ellipse cx="1561.2198" cy="238.8377" fill="#F1F1F1" rx="74.2198" ry="17.244" style="stroke:#181818;stroke-width:0.5;"/><text fill="#000000" font-family="sans-serif" font-size="14" lengthAdjust="spacing" textLength="104" x="1506.2198" y="242.5853">Filtrar por clase</text></g><g id="elem_UC_ConfigPipeline"><ellipse cx="1351.8736" cy="238.641" fill="#F1F1F1" rx="99.8736" ry="26.0473" style="stroke:#181818;stroke-width:0.5;"/><text fill="#000000" font-family="sans-serif" font-size="14" lengthAdjust="spacing" textLength="117" x="1293.3736" y="233.3393">Configurar pasos</text><text fill="#000000" font-family="sans-serif" font-size="14" lengthAdjust="spacing" textLength="125" x="1289.3736" y="249.6361">de transformación</text></g><g id="elem_UC_ApplyTransform"><ellipse cx="1096.7693" cy="238.4476" fill="#F1F1F1" rx="119.7693" ry="26.3539" style="stroke:#181818;stroke-width:0.5;"/><text fill="#000000" font-family="sans-serif" font-size="14" lengthAdjust="spacing" textLength="152" x="1017.7693" y="234.0467">Aplicar transformación</text><text fill="#000000" font-family="sans-serif" font-size="14" lengthAdjust="spacing" textLength="67" x="1060.2693" y="250.3436">al dataset</text></g><g id="elem_UC_ViewTransformed"><ellipse cx="865.832" cy="238.641" fill="#F1F1F1" rx="75.832" ry="26.0473" style="stroke:#181818;stroke-width:0.5;"/><text fill="#000000" font-family="sans-serif" font-size="14" lengthAdjust="spacing" textLength="64" x="833.832" y="233.3393">Ver señal</text><text fill="#000000" font-family="sans-serif" font-size="14" lengthAdjust="spacing" textLength="91" x="820.332" y="249.6361">transformada</text></g><g id="elem_UC_History"><ellipse cx="642.8944" cy="238.641" fill="#F1F1F1" rx="111.8944" ry="26.0473" style="stroke:#181818;stroke-width:0.5;"/><text fill="#000000" font-family="sans-serif" font-size="14" lengthAdjust="spacing" textLength="107" x="589.3944" y="233.3393">Revisar historial</text><text fill="#000000" font-family="sans-serif" font-size="14" lengthAdjust="spacing" textLength="142" x="571.8944" y="249.6361">de transformaciones</text></g><g id="elem_UC_AutoApply"><ellipse cx="391.9549" cy="238.815" fill="#F1F1F1" rx="103.4549" ry="26.2213" style="stroke:#181818;stroke-width:0.5;"/><text fill="#000000" font-family="sans-serif" font-size="14" lengthAdjust="spacing" textLength="129" x="324.4549" y="234.4142">Activar auto-aplicar</text><text fill="#000000" font-family="sans-serif" font-size="14" lengthAdjust="spacing" textLength="54" x="361.9549" y="250.711">pipeline</text></g><g id="elem_UC_GoToModel"><ellipse cx="137.93" cy="238.641" fill="#F1F1F1" rx="115.43" ry="26.0473" style="stroke:#181818;stroke-width:0.5;"/><text fill="#000000" font-family="sans-serif" font-size="14" lengthAdjust="spacing" textLength="79" x="98.43" y="233.3393">Ir al paso 2:</text><text fill="#000000" font-family="sans-serif" font-size="14" lengthAdjust="spacing" textLength="147" x="64.43" y="249.6361">Modelo Inner Speech</text></g><!--MD5=[fee662a292a0353a69bd162820bae93b]
entity User--><g id="elem_User"><ellipse cx="1456" cy="67.5938" fill="#F1F1F1" rx="8" ry="8" style="stroke:#181818;stroke-width:0.5;"/><path d="M1456,75.5938 L1456,102.5938 M1443,83.5938 L1469,83.5938 M1456,102.5938 L1443,117.5938 M1456,102.5938 L1469,117.5938 " fill="none" style="stroke:#181818;stroke-width:0.5;"/><text fill="#000000" font-family="sans-serif" font-size="14" lengthAdjust="spacing" textLength="52" x="1414" y="132.0889">Usuario</text><text fill="#000000" font-family="sans-serif" font-size="14" lengthAdjust="spacing" textLength="84" x="1414" y="148.3857">Investigador</text></g><!--MD5=[54e235ef462ca6d95a8019f05db733e2]
link User to UC_LoadMeta--><g id="link_User_UC_LoadMeta"><path d="M1498.2,106.2637 C1672.74,105.3237 2338.34,106.0338 2537,169.0938 C2564.94,177.9638 2592.94,195.5537 2613.7,210.6838 " fill="none" id="User-to-UC_LoadMeta" style="stroke:#181818;stroke-width:1.0;"/><polygon fill="#181818" points="2617.75,213.6737,2612.896,205.1041,2613.7312,210.699,2608.1363,211.5342,2617.75,213.6737" style="stroke:#181818;stroke-width:1.0;"/></g><!--MD5=[c86a160029104508351a7af5e9c0c21b]
link User to UC_ClassExplore--><g id="link_User_UC_ClassExplore"><path d="M1498.09,106.5838 C1652.12,106.9837 2184.42,112.5338 2343,169.0938 C2368.09,178.0438 2392.57,195.4138 2410.66,210.4237 " fill="none" id="User-to-UC_ClassExplore" style="stroke:#181818;stroke-width:1.0;"/><polygon fill="#181818" points="2414.65,213.7838,2410.3291,204.9333,2410.8206,210.5688,2405.1852,211.0603,2414.65,213.7838" style="stroke:#181818;stroke-width:1.0;"/></g><!--MD5=[e05c1ae460ce667b0eb5d71a7b057b6a]
link User to UC_ChannelExplore--><g id="link_User_UC_ChannelExplore"><path d="M1498.33,107.5437 C1629.63,110.9438 2028.4,124.7438 2149,169.0938 C2174,178.2938 2198.48,195.6538 2216.59,210.6038 " fill="none" id="User-to-UC_ChannelExplore" style="stroke:#181818;stroke-width:1.0;"/><polygon fill="#181818" points="2220.59,213.9438,2216.2529,205.1013,2216.7547,210.7358,2211.1202,211.2377,2220.59,213.9438" style="stroke:#181818;stroke-width:1.0;"/></g><!--MD5=[fbcccb2778f3474d0cfe0335aaa5f851]
link User to UC_ChannelNav--><g id="link_User_UC_ChannelNav"><path d="M1498.24,107.1938 C1579.54,109.4938 1762.5,120.1738 1907,169.0938 C1936.6,179.1137 1967.2,196.5138 1990.22,211.2738 " fill="none" id="User-to-UC_ChannelNav" style="stroke:#181818;stroke-width:1.0;"/><polygon fill="#181818" points="1994.43,213.9938,1989.0422,205.7492,1990.2306,211.2799,1984.7,212.4683,1994.43,213.9938" style="stroke:#181818;stroke-width:1.0;"/></g><!--MD5=[c0496a65498532080ed35c4e97a46204]
link User to UC_SelectChannels--><g id="link_User_UC_SelectChannels"><path d="M1498.33,117.5437 C1538.79,128.5838 1601.13,147.1038 1653,169.0938 C1681.77,181.2938 1712.66,197.8637 1736.76,211.6538 " fill="none" id="User-to-UC_SelectChannels" style="stroke:#181818;stroke-width:1.0;"/><polygon fill="#181818" points="1741.18,214.1938,1735.356,206.2514,1736.8405,211.71,1731.382,213.1945,1741.18,214.1938" style="stroke:#181818;stroke-width:1.0;"/></g><!--MD5=[801511091959f2d8aed05083265c70f4]
link User to UC_FilterClass--><g id="link_User_UC_FilterClass"><path d="M1492.72,152.4138 C1510.5,174.5838 1530.93,200.0738 1544.78,217.3538 " fill="none" id="User-to-UC_FilterClass" style="stroke:#181818;stroke-width:1.0;"/><polygon fill="#181818" points="1548.15,221.5638,1545.6385,212.0405,1545.0213,217.6636,1539.3982,217.0464,1548.15,221.5638" style="stroke:#181818;stroke-width:1.0;"/></g><!--MD5=[af7f5ae9113d86dca54d2a3191ea0cc6]
link User to UC_ConfigPipeline--><g id="link_User_UC_ConfigPipeline"><path d="M1419.63,152.4138 C1404.72,171.1838 1387.93,192.3338 1374.81,208.8637 " fill="none" id="User-to-UC_ConfigPipeline" style="stroke:#181818;stroke-width:1.0;"/><polygon fill="#181818" points="1371.55,212.9638,1380.2734,208.3918,1374.6542,209.0441,1374.0019,203.425,1371.55,212.9638" style="stroke:#181818;stroke-width:1.0;"/></g><!--MD5=[bb5077c6b99d70a06028c0c733a4bc1a]
link User to UC_ApplyTransform--><g id="link_User_UC_ApplyTransform"><path d="M1413.7,116.0838 C1368.65,126.7637 1295.64,145.7038 1235,169.0938 C1203.98,181.0638 1170.55,197.5537 1144.36,211.3637 " fill="none" id="User-to-UC_ApplyTransform" style="stroke:#181818;stroke-width:1.0;"/><polygon fill="#181818" points="1139.89,213.7338,1149.7166,213.0725,1144.3124,211.4009,1145.9841,205.9967,1139.89,213.7338" style="stroke:#181818;stroke-width:1.0;"/></g><!--MD5=[9a949426f13b0a60167a5ae60ce8851d]
link User to UC_ViewTransformed--><g id="link_User_UC_ViewTransformed"><path d="M1413.87,109.1938 C1309.7,116.0437 1042.49,136.3838 960,169.0938 C935.92,178.6438 912.36,195.8238 894.86,210.5938 " fill="none" id="User-to-UC_ViewTransformed" style="stroke:#181818;stroke-width:1.0;"/><polygon fill="#181818" points="890.99,213.8938,900.4326,211.0941,894.7933,210.648,895.2394,205.0088,890.99,213.8938" style="stroke:#181818;stroke-width:1.0;"/></g><!--MD5=[a3fefb2fd6ce0a79ae0ea3efbf5d6aee]
link User to UC_History--><g id="link_User_UC_History"><path d="M1413.59,108.3038 C1283.91,113.8537 894.16,133.1938 773,169.0938 C741.11,178.5438 707.98,196.1338 683.15,211.1238 " fill="none" id="User-to-UC_History" style="stroke:#181818;stroke-width:1.0;"/><polygon fill="#181818" points="678.61,213.8938,688.3776,212.631,682.881,211.294,684.218,205.7974,678.61,213.8938" style="stroke:#181818;stroke-width:1.0;"/></g><!--MD5=[045ec241b5f7eb336a6ced2205a8cb2e]
link User to UC_AutoApply--><g id="link_User_UC_AutoApply"><path d="M1413.98,106.9238 C1254.4,108.5538 686.23,117.9038 514,169.0938 C483.53,178.1538 452.34,195.8438 429.12,210.9838 " fill="none" id="User-to-UC_AutoApply" style="stroke:#181818;stroke-width:1.0;"/><polygon fill="#181818" points="424.88,213.7738,434.5976,212.1713,429.0578,211.0267,430.2024,205.4869,424.88,213.7738" style="stroke:#181818;stroke-width:1.0;"/></g><!--MD5=[60feeb33d5797e888d43626dcfe7850f]
link User to UC_GoToModel--><g id="link_User_UC_GoToModel"><path d="M1413.99,106.4538 C1229.82,106.1938 493.11,109.0238 271,169.0938 C237.94,178.0338 203.65,195.9438 178.16,211.2038 " fill="none" id="User-to-UC_GoToModel" style="stroke:#181818;stroke-width:1.0;"/><polygon fill="#181818" points="173.83,213.8238,183.6006,212.5849,178.1073,211.2345,179.4578,205.7412,173.83,213.8238" style="stroke:#181818;stroke-width:1.0;"/></g><!--MD5=[572dab6419cf3b257043b8bcd189c78a]
@startuml
title
  Casos de Uso (Front-End)
  Paso 1 — Transformación Inner Speech
end title

actor "Usuario\nInvestigador" as User

rectangle "Página Inner Speech — Paso 1: Transformación" {

  usecase "Cargar metadata\ndel dataset" as UC_LoadMeta
  usecase "Explorar señal\npor clases" as UC_ClassExplore
  usecase "Explorar señal\npor canales" as UC_ChannelExplore
  usecase "Navegar canales\nanterior / siguiente" as UC_ChannelNav
  usecase "Seleccionar canales\nespecíficos" as UC_SelectChannels
  usecase "Filtrar por clase" as UC_FilterClass

  usecase "Configurar pasos\nde transformación" as UC_ConfigPipeline
  usecase "Aplicar transformación\nal dataset" as UC_ApplyTransform
  usecase "Ver señal\ntransformada" as UC_ViewTransformed
  usecase "Revisar historial\nde transformaciones" as UC_History
  usecase "Activar auto-aplicar\npipeline" as UC_AutoApply

  usecase "Ir al paso 2:\nModelo Inner Speech" as UC_GoToModel
}

User - -> UC_LoadMeta
User - -> UC_ClassExplore
User - -> UC_ChannelExplore
User - -> UC_ChannelNav
User - -> UC_SelectChannels
User - -> UC_FilterClass
User - -> UC_ConfigPipeline
User - -> UC_ApplyTransform
User - -> UC_ViewTransformed
User - -> UC_History
User - -> UC_AutoApply
User - -> UC_GoToModel
@enduml

PlantUML version 1.2022.7(Mon Aug 22 17:01:30 UTC 2022)
(GPL source distribution)
Java Runtime: OpenJDK Runtime Environment
JVM: OpenJDK 64-Bit Server VM
Default Encoding: UTF-8
Language: en
Country: null
--></g></svg>