<?xml version="1.0" encoding="UTF-8" standalone="no"?><svg xmlns="http://www.w3.org/2000/svg" xmlns:xlink="http://www.w3.org/1999/xlink" contentStyleType="text/css" height="1031px" preserveAspectRatio="none" style="width:2982px;height:1031px;background:#FFFFFF;" version="1.1" viewBox="0 0 2982 1031" width="2982px" zoomAndPan="magnify"><defs/><g><rect fill="none" height="26.2969" id="_title" style="stroke:none;stroke-width:1.0;" width="608" x="1180" y="5"/><text fill="#000000" font-family="sans-serif" font-size="14" font-weight="bold" lengthAdjust="spacing" textLength="598" x="1185" y="22.9951">Casos de Uso - Pagina Modelado Inner Speech (modelado_inner_speech.py)</text><!--MD5=[019e1439515e01440e7f631211120c5c]
cluster Sistema EGG-lab\n(Modelado Inner Speech)--><g id="cluster_Sistema EGG-lab\n(Modelado Inner Speech)"><rect fill="none" height="629.5" rx="2.5" ry="2.5" style="stroke:#181818;stroke-width:1.0;" width="870" x="998" y="198.7969"/><text fill="#000000" font-family="sans-serif" font-size="14" font-weight="bold" lengthAdjust="spacing" textLength="129" x="1368.5" y="213.792">Sistema EGG-lab</text><text fill="#000000" font-family="sans-serif" font-size="14" font-weight="bold" lengthAdjust="spacing" textLength="198" x="1334" y="230.0889">(Modelado Inner Speech)</text></g><!--MD5=[b4e09d266be9964199f2622adcc056fa]
cluster Backend--><g id="cluster_Backend"><rect fill="none" height="111" rx="2.5" ry="2.5" style="stroke:#181818;stroke-width:1.0;" width="1265" x="7" y="914.7969"/><text fill="#000000" font-family="sans-serif" font-size="14" font-weight="bold" lengthAdjust="spacing" textLength="67" x="606" y="929.792">Backend</text></g><g id="elem_UC1"><ellipse cx="1738.9957" cy="449.5461" fill="#90EE90" rx="109.9957" ry="26.2493" style="stroke:#00008B;stroke-width:0.5;"/><text fill="#000000" font-family="sans-serif" font-size="14" lengthAdjust="spacing" textLength="138" x="1666.9957" y="445.1453">Seleccionar Dataset</text><text fill="#000000" font-family="sans-serif" font-size="14" lengthAdjust="spacing" textLength="92" x="1689.9957" y="461.4421">Inner Speech</text></g><g id="elem_UC2"><ellipse cx="1507.1457" cy="449.3441" fill="#ADD8E6" rx="87.1457" ry="26.0473" style="stroke:#00008B;stroke-width:0.5;"/><text fill="#000000" font-family="sans-serif" font-size="14" lengthAdjust="spacing" textLength="71" x="1471.6457" y="444.0424">Configurar</text><text fill="#000000" font-family="sans-serif" font-size="14" lengthAdjust="spacing" textLength="107" x="1453.6457" y="460.3393">Transformacion</text></g><g id="elem_UC3"><ellipse cx="1734.2474" cy="617.8463" fill="#FFFF00" rx="118.2474" ry="26.0495" style="stroke:#00008B;stroke-width:0.5;"/><text fill="#000000" font-family="sans-serif" font-size="14" lengthAdjust="spacing" textLength="106" x="1681.2474" y="612.5446">Visualizar Señal</text><text fill="#000000" font-family="sans-serif" font-size="14" lengthAdjust="spacing" textLength="151" x="1658.7474" y="628.8415">Original/Transformada</text></g><g id="elem_UC4"><ellipse cx="1276.8154" cy="449.5372" fill="#FFA500" rx="107.8154" ry="26.2403" style="stroke:#00008B;stroke-width:0.5;"/><text fill="#000000" font-family="sans-serif" font-size="14" lengthAdjust="spacing" textLength="135" x="1206.3154" y="445.1363">Seleccionar Modelo</text><text fill="#000000" font-family="sans-serif" font-size="14" lengthAdjust="spacing" textLength="106" x="1220.8154" y="461.4332">de Clasificacion</text></g><g id="elem_UC5"><ellipse cx="1346.8026" cy="617.8441" fill="#FFC0CB" rx="92.8026" ry="26.0473" style="stroke:#00008B;stroke-width:0.5;"/><text fill="#000000" font-family="sans-serif" font-size="14" lengthAdjust="spacing" textLength="71" x="1311.3026" y="612.5424">Configurar</text><text fill="#000000" font-family="sans-serif" font-size="14" lengthAdjust="spacing" textLength="115" x="1289.3026" y="628.8393">Hiperparametros</text></g><g id="elem_UC6"><ellipse cx="1528.2046" cy="617.8441" fill="#E6E6FA" rx="53.2046" ry="26.0473" style="stroke:#00008B;stroke-width:0.5;"/><text fill="#000000" font-family="sans-serif" font-size="14" lengthAdjust="spacing" textLength="59" x="1498.7046" y="612.5424">Entrenar</text><text fill="#000000" font-family="sans-serif" font-size="14" lengthAdjust="spacing" textLength="51" x="1502.7046" y="628.8393">Modelo</text></g><g id="elem_UC7"><ellipse cx="1308.1665" cy="786.3441" fill="#E0FFFF" rx="99.1665" ry="26.0473" style="stroke:#00008B;stroke-width:0.5;"/><text fill="#000000" font-family="sans-serif" font-size="14" lengthAdjust="spacing" textLength="85" x="1265.6665" y="781.0424">Ver Metricas</text><text fill="#000000" font-family="sans-serif" font-size="14" lengthAdjust="spacing" textLength="124" x="1246.1665" y="797.3393">de Entrenamiento</text></g><g id="elem_UC8"><ellipse cx="1360.1835" cy="278.1336" fill="#FFFFE0" rx="129.6835" ry="28.3367" style="stroke:#00008B;stroke-width:0.5;"/><text fill="#000000" font-family="sans-serif" font-size="14" lengthAdjust="spacing" textLength="97" x="1311.6835" y="272.8318">Navegar entre</text><text fill="#000000" font-family="sans-serif" font-size="14" lengthAdjust="spacing" textLength="182" x="1269.1835" y="289.1287">Pasos (Transform/Modelo)</text></g><g id="elem_UC9"><ellipse cx="1116.2021" cy="617.8441" fill="#FFFFE0" rx="102.7021" ry="26.0473" style="stroke:#00008B;stroke-width:0.5;"/><text fill="#000000" font-family="sans-serif" font-size="14" lengthAdjust="spacing" textLength="103" x="1064.7021" y="612.5424">Aplicar Pipeline</text><text fill="#000000" font-family="sans-serif" font-size="14" lengthAdjust="spacing" textLength="129" x="1051.7021" y="628.8393">de Transformacion</text></g><g id="elem_UC10"><ellipse cx="1095.1604" cy="786.3441" fill="#FFFFE0" rx="78.6604" ry="26.0473" style="stroke:#00008B;stroke-width:0.5;"/><text fill="#000000" font-family="sans-serif" font-size="14" lengthAdjust="spacing" textLength="45" x="1072.6604" y="781.0424">Validar</text><text fill="#000000" font-family="sans-serif" font-size="14" lengthAdjust="spacing" textLength="95" x="1047.6604" y="797.3393">Configuracion</text></g><g id="elem_UC11"><ellipse cx="1104.1473" cy="278.4457" fill="#D3D3D3" rx="89.6473" ry="26.1489" style="stroke:#00008B;stroke-width:0.5;"/><text fill="#000000" font-family="sans-serif" font-size="14" lengthAdjust="spacing" textLength="110" x="1046.1473" y="274.0449">Guardar Modelo</text><text fill="#000000" font-family="sans-serif" font-size="14" lengthAdjust="spacing" textLength="72" x="1065.1473" y="290.3417">Entrenado</text></g><g id="elem_BACK1"><ellipse cx="147.9685" cy="979.6906" fill="#E6E6FA" rx="124.9685" ry="27.3937" style="stroke:#00008B;stroke-width:0.5;"/><text fill="#000000" font-family="sans-serif" font-size="14" lengthAdjust="spacing" textLength="167" x="61.4685" y="975.2897">ClassifierSchemaFactory</text><text fill="#000000" font-family="sans-serif" font-size="14" lengthAdjust="spacing" textLength="128" x="80.9685" y="991.5866">.get_all_schemas()</text></g><g id="elem_BACK2"><ellipse cx="1118.8751" cy="979.9719" fill="#E6E6FA" rx="136.3751" ry="29.675" style="stroke:#00008B;stroke-width:0.5;"/><text fill="#000000" font-family="sans-serif" font-size="14" lengthAdjust="spacing" textLength="242" x="997.8751" y="982.8186">Experiment.apply_history_pipeline()</text></g><g id="elem_BACK3"><ellipse cx="880.0233" cy="979.7015" fill="#E6E6FA" rx="67.5233" ry="15.9047" style="stroke:#00008B;stroke-width:0.5;"/><text fill="#000000" font-family="sans-serif" font-size="14" lengthAdjust="spacing" textLength="86" x="834.0233" y="983.4491">Model.train()</text></g><g id="elem_BACK4"><ellipse cx="699.1551" cy="979.8279" fill="#E6E6FA" rx="78.1551" ry="18.031" style="stroke:#00008B;stroke-width:0.5;"/><text fill="#000000" font-family="sans-serif" font-size="14" lengthAdjust="spacing" textLength="114" x="639.7659" y="983.4134">Model.evaluate()</text></g><g id="elem_BACK5"><ellipse cx="447.2348" cy="980.0438" fill="#E6E6FA" rx="139.2348" ry="30.247" style="stroke:#00008B;stroke-width:0.5;"/><text fill="#000000" font-family="sans-serif" font-size="14" lengthAdjust="spacing" textLength="248" x="323.2348" y="982.8905">Dataset.load_event_with_channels()</text></g><!--MD5=[8fc3522a43f8c7199df5e09e5bb0188e]
entity user--><g id="elem_user"><ellipse cx="1908" cy="51.2969" fill="#ADD8E6" rx="8" ry="8" style="stroke:#00008B;stroke-width:0.5;"/><path d="M1908,59.2969 L1908,86.2969 M1895,67.2969 L1921,67.2969 M1908,86.2969 L1895,101.2969 M1908,86.2969 L1921,101.2969 " fill="none" style="stroke:#00008B;stroke-width:0.5;"/><text fill="#000000" font-family="sans-serif" font-size="14" lengthAdjust="spacing" textLength="52" x="1866" y="115.792">Usuario</text><text fill="#000000" font-family="sans-serif" font-size="14" lengthAdjust="spacing" textLength="84" x="1866" y="132.0889">Investigador</text></g><g id="elem_GMN362"><path d="M2473.5,391.2969 L2473.5,507.2266 L2688.5,507.2266 L2688.5,401.2969 L2678.5,391.2969 L2473.5,391.2969 " fill="#FFFFE0" style="stroke:#181818;stroke-width:0.5;"/><path d="M2678.5,391.2969 L2678.5,401.2969 L2688.5,401.2969 L2678.5,391.2969 " fill="#FFFFE0" style="stroke:#181818;stroke-width:1.0;"/><text fill="#000000" font-family="sans-serif" font-size="13" lengthAdjust="spacing" textLength="121" x="2479.5" y="408.3638">Flujo Inner Speech:</text><text fill="#000000" font-family="sans-serif" font-size="13" lengthAdjust="spacing" textLength="194" x="2479.5" y="423.4966">1. Carga dataset especifico de</text><text fill="#000000" font-family="sans-serif" font-size="13" lengthAdjust="spacing" textLength="132" x="2491.5" y="438.6294">Inner Speech (Nieto)</text><text fill="#000000" font-family="sans-serif" font-size="13" lengthAdjust="spacing" textLength="180" x="2479.5" y="453.7622">2. Valida que tenga 4 clases</text><text fill="#000000" font-family="sans-serif" font-size="13" lengthAdjust="spacing" textLength="145" x="2491.5" y="468.895">(arriba, abajo, izq, der)</text><text fill="#000000" font-family="sans-serif" font-size="13" lengthAdjust="spacing" textLength="185" x="2479.5" y="484.0278">3. Carga metadata y canales</text><text fill="#000000" font-family="sans-serif" font-size="13" lengthAdjust="spacing" textLength="156" x="2479.5" y="499.1606">4. Renderiza PlayGround</text></g><g id="elem_GMN365"><path d="M2201.5,383.7969 L2201.5,514.8594 L2438.5,514.8594 L2438.5,393.7969 L2428.5,383.7969 L2201.5,383.7969 " fill="#FFFFE0" style="stroke:#181818;stroke-width:0.5;"/><path d="M2428.5,383.7969 L2428.5,393.7969 L2438.5,393.7969 L2428.5,383.7969 " fill="#FFFFE0" style="stroke:#181818;stroke-width:1.0;"/><text fill="#000000" font-family="sans-serif" font-size="13" lengthAdjust="spacing" textLength="192" x="2207.5" y="400.8638">Flujo Paso 1 - Transformacion:</text><text fill="#000000" font-family="sans-serif" font-size="13" lengthAdjust="spacing" textLength="204" x="2207.5" y="415.9966">1. Usuario aplica transformadas</text><text fill="#000000" font-family="sans-serif" font-size="13" lengthAdjust="spacing" textLength="124" x="2219.5" y="431.1294">desde RightColumn</text><text fill="#000000" font-family="sans-serif" font-size="13" lengthAdjust="spacing" textLength="173" x="2207.5" y="446.2622">2. Sistema ejecuta pipeline</text><text fill="#000000" font-family="sans-serif" font-size="13" lengthAdjust="spacing" textLength="171" x="2207.5" y="461.395">3. Visualiza señal original y</text><text fill="#000000" font-family="sans-serif" font-size="13" lengthAdjust="spacing" textLength="200" x="2219.5" y="476.5278">transformada en dos columnas</text><text fill="#000000" font-family="sans-serif" font-size="13" lengthAdjust="spacing" textLength="194" x="2207.5" y="491.6606">4. Valida que se haya aplicado</text><text fill="#000000" font-family="sans-serif" font-size="13" lengthAdjust="spacing" textLength="204" x="2219.5" y="506.7935">transformacion antes de paso 2</text></g><g id="elem_GMN368"><path d="M1884,398.7969 L1884,499.5938 L2166,499.5938 L2166,408.7969 L2156,398.7969 L1884,398.7969 " fill="#FFFFE0" style="stroke:#181818;stroke-width:0.5;"/><path d="M2156,398.7969 L2156,408.7969 L2166,408.7969 L2156,398.7969 " fill="#FFFFE0" style="stroke:#181818;stroke-width:1.0;"/><text fill="#000000" font-family="sans-serif" font-size="13" lengthAdjust="spacing" textLength="139" x="1890" y="415.8638">Flujo Paso 2 - Modelo:</text><text fill="#000000" font-family="sans-serif" font-size="13" lengthAdjust="spacing" textLength="261" x="1890" y="430.9966">1. Muestra cards de modelos disponibles</text><text fill="#000000" font-family="sans-serif" font-size="13" lengthAdjust="spacing" textLength="145" x="1902" y="446.1294">(LSTM, GRU, SVM, etc)</text><text fill="#000000" font-family="sans-serif" font-size="13" lengthAdjust="spacing" textLength="188" x="1890" y="461.2622">2. Usuario selecciona modelo</text><text fill="#000000" font-family="sans-serif" font-size="13" lengthAdjust="spacing" textLength="247" x="1890" y="476.395">3. Carga schema con hiperparametros</text><text fill="#000000" font-family="sans-serif" font-size="13" lengthAdjust="spacing" textLength="251" x="1890" y="491.5278">4. Renderiza controles de configuracion</text></g><g id="elem_GMN371"><path d="M704.5,720.7969 L704.5,851.8594 L981.5,851.8594 L981.5,730.7969 L971.5,720.7969 L704.5,720.7969 " fill="#FFFFE0" style="stroke:#181818;stroke-width:0.5;"/><path d="M971.5,720.7969 L971.5,730.7969 L981.5,730.7969 L971.5,720.7969 " fill="#FFFFE0" style="stroke:#181818;stroke-width:1.0;"/><text fill="#000000" font-family="sans-serif" font-size="13" lengthAdjust="spacing" textLength="152" x="710.5" y="737.8638">Flujo de Entrenamiento:</text><text fill="#000000" font-family="sans-serif" font-size="13" lengthAdjust="spacing" textLength="208" x="710.5" y="752.9966">1. Valida configuracion completa</text><text fill="#000000" font-family="sans-serif" font-size="13" lengthAdjust="spacing" textLength="219" x="710.5" y="768.1294">2. Valida que haya transformacion</text><text fill="#000000" font-family="sans-serif" font-size="13" lengthAdjust="spacing" textLength="223" x="710.5" y="783.2622">3. Inicia entrenamiento asincronico</text><text fill="#000000" font-family="sans-serif" font-size="13" lengthAdjust="spacing" textLength="231" x="710.5" y="798.395">4. Actualiza metricas en tiempo real</text><text fill="#000000" font-family="sans-serif" font-size="13" lengthAdjust="spacing" textLength="147" x="722.5" y="813.5278">(loss, accuracy, epoch)</text><text fill="#000000" font-family="sans-serif" font-size="13" lengthAdjust="spacing" textLength="183" x="710.5" y="828.6606">5. Guarda modelo al finalizar</text><text fill="#000000" font-family="sans-serif" font-size="13" lengthAdjust="spacing" textLength="256" x="710.5" y="843.7935">6. Especifico para 4 clases Inner Speech</text></g><g id="elem_GMN374"><path d="M673.5,391.2969 L673.5,507.2266 L982.5,507.2266 L982.5,401.2969 L972.5,391.2969 L673.5,391.2969 " fill="#FFFFE0" style="stroke:#181818;stroke-width:0.5;"/><path d="M972.5,391.2969 L972.5,401.2969 L982.5,401.2969 L972.5,391.2969 " fill="#FFFFE0" style="stroke:#181818;stroke-width:1.0;"/><text fill="#000000" font-family="sans-serif" font-size="13" lengthAdjust="spacing" textLength="119" x="679.5" y="408.3638">Sistema de Pasos:</text><text fill="#000000" font-family="sans-serif" font-size="13" lengthAdjust="spacing" textLength="267" x="679.5" y="423.4966">- Paso 1: Transformacion (siempre activo)</text><text fill="#000000" font-family="sans-serif" font-size="13" lengthAdjust="spacing" textLength="288" x="679.5" y="438.6294">- Paso 2: Modelo (solo si hay transformacion)</text><text fill="#000000" font-family="sans-serif" font-size="13" lengthAdjust="spacing" textLength="216" x="679.5" y="453.7622">- Usuario navega entre pasos con</text><text fill="#000000" font-family="sans-serif" font-size="13" lengthAdjust="spacing" textLength="128" x="687.5" y="468.895">indicadores visuales</text><text fill="#000000" font-family="sans-serif" font-size="13" lengthAdjust="spacing" textLength="213" x="679.5" y="484.0278">- No puede configurar modelo sin</text><text fill="#000000" font-family="sans-serif" font-size="13" lengthAdjust="spacing" textLength="166" x="687.5" y="499.1606">completar transformacion</text></g><!--MD5=[e71913910ae60f5842a843a20d6ecd39]
link user to UC1--><g id="link_user_UC1"><path d="M1944.73,135.8969 C1955.73,152.2469 1966.36,171.4369 1972,190.7969 C1986.42,240.2969 1997.28,261.8669 1972,306.7969 C1961.6,325.2769 1851.59,387.2169 1786.52,422.7169 " fill="none" id="user-to-UC1" style="stroke:#181818;stroke-width:1.0;"/><polygon fill="#181818" points="1781.92,425.2269,1791.7374,424.44,1786.3122,422.8376,1787.9146,417.4125,1781.92,425.2269" style="stroke:#181818;stroke-width:1.0;"/><text fill="#000000" font-family="sans-serif" font-size="13" lengthAdjust="spacing" textLength="170" x="1988" y="282.8638">Seleccionar desde Sidebar</text></g><!--MD5=[20aeaa20d1880359803c0703a4b24425]
link user to UC2--><g id="link_user_UC2"><path d="M1865.77,117.3769 C1839.39,135.7969 1805.99,161.9769 1782,190.7969 C1744.6,235.7269 1759.32,263.5369 1720,306.7969 C1706.51,321.6469 1605.84,386.0969 1547.86,422.6769 " fill="none" id="user-to-UC2" style="stroke:#181818;stroke-width:1.0;"/><polygon fill="#181818" points="1543.41,425.4769,1553.1552,424.0517,1547.6371,422.8064,1548.8824,417.2883,1543.41,425.4769" style="stroke:#181818;stroke-width:1.0;"/><text fill="#000000" font-family="sans-serif" font-size="13" lengthAdjust="spacing" textLength="180" x="1783" y="282.8638">Aplicar filtros/transformadas</text></g><!--MD5=[b2cfa0738cc752f103aa40c770997175]
link user to UC4--><g id="link_user_UC4"><path d="M1865.77,96.8069 C1782.91,110.4769 1603.61,144.7469 1564,190.7969 C1516.33,246.2169 1591.62,300.1169 1542,353.7969 C1499.1,400.2069 1462.52,362.5469 1403,383.7969 C1374.58,393.9469 1344.43,409.1969 1320.75,422.3269 " fill="none" id="user-to-UC4" style="stroke:#181818;stroke-width:1.0;"/><polygon fill="#181818" points="1316.1,424.9169,1325.9065,424.0046,1320.4613,422.4717,1321.9942,417.0265,1316.1,424.9169" style="stroke:#181818;stroke-width:1.0;"/><text fill="#000000" font-family="sans-serif" font-size="13" lengthAdjust="spacing" textLength="146" x="1565" y="282.8638">Clic en card de modelo</text></g><!--MD5=[96bbf347eb6577790aa042b4af8d13f7]
link user to UC5--><g id="link_user_UC5"><path d="M1950.26,96.0569 C2146.36,124.2869 2948.12,257.2769 2706,514.7969 C2610.83,616.0169 1595.54,572.1969 1458,591.7969 C1445.48,593.5769 1432.29,596.0369 1419.53,598.7169 " fill="none" id="user-to-UC5" style="stroke:#181818;stroke-width:1.0;"/><polygon fill="#181818" points="1414.48,599.7869,1424.1167,601.82,1419.3698,598.7431,1422.4467,593.9963,1414.48,599.7869" style="stroke:#181818;stroke-width:1.0;"/><text fill="#000000" font-family="sans-serif" font-size="13" lengthAdjust="spacing" textLength="124" x="2725" y="349.8638">Ajustar parametros</text></g><!--MD5=[25a3ad4d0be805c5841d244648c395ae]
link user to UC6--><g id="link_user_UC6"><path d="M1950.1,91.7469 C2113.25,97.6769 2698.26,121.8369 2768,165.7969 C2848.24,216.3769 2890.26,261.3569 2869,353.7969 C2845.97,453.9469 2854.4,506.1469 2768,561.7969 C2713.38,596.9769 1662.89,580.0269 1599,591.7969 C1590.22,593.4169 1581.06,595.9469 1572.36,598.7969 " fill="none" id="user-to-UC6" style="stroke:#181818;stroke-width:1.0;"/><polygon fill="#181818" points="1567.58,600.4069,1577.3873,601.3112,1572.3162,598.8043,1574.8231,593.7332,1567.58,600.4069" style="stroke:#181818;stroke-width:1.0;"/><text fill="#000000" font-family="sans-serif" font-size="13" lengthAdjust="spacing" textLength="101" x="2873" y="349.8638">Clic en Entrenar</text></g><!--MD5=[efda522a7868aa178a844f5aef0f93b9]
link user to UC8--><g id="link_user_UC8"><path d="M1865.71,92.2169 C1761.32,97.6669 1494.64,116.2069 1423,165.7969 C1395.92,184.5369 1379.09,218.9269 1369.71,244.5669 " fill="none" id="user-to-UC8" style="stroke:#181818;stroke-width:1.0;"/><polygon fill="#181818" points="1367.93,249.5769,1374.7075,242.4309,1369.6008,244.8643,1367.1674,239.7576,1367.93,249.5769" style="stroke:#181818;stroke-width:1.0;"/><text fill="#000000" font-family="sans-serif" font-size="13" lengthAdjust="spacing" textLength="113" x="1424" y="178.8638">Navegar paso 1/2</text></g><!--MD5=[e86ca496d34e9762bd5af90f0496340a]
link UC1 to BACK5--><g id="link_UC1_BACK5"><path d="M1701.91,473.7869 C1677.36,488.1369 1643.92,505.4669 1612,514.7969 C1482.54,552.6469 1443.85,528.1369 1310,544.7969 C990.86,584.5069 852.62,477.3469 598,673.7969 C508.13,743.1269 468.11,880.1469 453.73,944.2369 " fill="none" id="UC1-to-BACK5" style="stroke:#181818;stroke-width:1.0;stroke-dasharray:7.0,7.0;"/><polygon fill="#181818" points="452.58,949.4669,458.4199,941.5362,453.654,944.5836,450.6066,939.8177,452.58,949.4669" style="stroke:#181818;stroke-width:1.0;"/><text fill="#000000" font-family="sans-serif" font-size="13" lengthAdjust="spacing" textLength="61" x="599" y="686.8638">«include»</text></g><!--MD5=[a1d4b06a7f08f673ba6551d9d9d7a186]
link UC1 to UC3--><g id="link_UC1_UC3"><path d="M1738.24,475.5869 C1737.35,505.2569 1735.87,554.4169 1734.92,586.2069 " fill="none" id="UC1-to-UC3" style="stroke:#181818;stroke-width:1.0;stroke-dasharray:7.0,7.0;"/><polygon fill="#181818" points="1734.76,591.5469,1739.0154,582.6648,1734.9028,586.5489,1731.0187,582.4363,1734.76,591.5469" style="stroke:#181818;stroke-width:1.0;"/><text fill="#000000" font-family="sans-serif" font-size="13" lengthAdjust="spacing" textLength="61" x="1737" y="557.8638">«include»</text></g><!--MD5=[f0be2fb77127b088597f947fa9e3d650]
link UC2 to UC9--><g id="link_UC2_UC9"><path d="M1485.02,474.7569 C1460.5,500.4669 1418.41,540.1269 1374,561.7969 C1369.94,563.7769 1272.66,584.2569 1198.75,599.6469 " fill="none" id="UC2-to-UC9" style="stroke:#181818;stroke-width:1.0;stroke-dasharray:7.0,7.0;"/><polygon fill="#181818" points="1193.47,600.7469,1203.0952,602.834,1198.3656,599.7305,1201.469,595.001,1193.47,600.7469" style="stroke:#181818;stroke-width:1.0;"/><text fill="#000000" font-family="sans-serif" font-size="13" lengthAdjust="spacing" textLength="61" x="1403" y="557.8638">«include»</text></g><!--MD5=[594891eb4838d876d29f7ff5a36f2080]
link UC2 to UC3--><g id="link_UC2_UC3"><path d="M1539.04,473.7969 C1580.6,504.2769 1652.95,557.3469 1696.86,589.5569 " fill="none" id="UC2-to-UC3" style="stroke:#181818;stroke-width:1.0;stroke-dasharray:7.0,7.0;"/><polygon fill="#181818" points="1701.02,592.6069,1696.1318,584.0567,1696.9893,589.6482,1691.3979,590.5058,1701.02,592.6069" style="stroke:#181818;stroke-width:1.0;"/><text fill="#000000" font-family="sans-serif" font-size="13" lengthAdjust="spacing" textLength="45" x="1655" y="557.8638">update</text></g><!--MD5=[c730013b87383b301bef85656f68e29d]
link UC3 to BACK2--><g id="link_UC3_BACK2"><path d="M1721.01,643.6769 C1694.84,691.3669 1631.09,795.8669 1548,851.7969 C1455.04,914.3769 1330.6,946.7569 1239.69,963.0969 " fill="none" id="UC3-to-BACK2" style="stroke:#181818;stroke-width:1.0;stroke-dasharray:7.0,7.0;"/><polygon fill="#181818" points="1234.58,964.0069,1244.139,966.3788,1239.5036,963.1363,1242.7461,958.501,1234.58,964.0069" style="stroke:#181818;stroke-width:1.0;"/><text fill="#000000" font-family="sans-serif" font-size="13" lengthAdjust="spacing" textLength="61" x="1674" y="790.8638">«include»</text></g><!--MD5=[d6606caa6a5e4c170d2a8994cee485fa]
link UC4 to BACK1--><g id="link_UC4_BACK1"><path d="M1209.04,469.6169 C1153.35,484.5969 1072.22,504.4869 1000,514.7969 C939.74,523.3969 506.23,515.2669 453,544.7969 C410.14,568.5769 227.67,852.8969 167.4,948.0169 " fill="none" id="UC4-to-BACK1" style="stroke:#181818;stroke-width:1.0;stroke-dasharray:7.0,7.0;"/><polygon fill="#181818" points="164.63,952.4069,172.8318,946.9542,167.3107,948.1862,166.0787,942.6651,164.63,952.4069" style="stroke:#181818;stroke-width:1.0;"/><text fill="#000000" font-family="sans-serif" font-size="13" lengthAdjust="spacing" textLength="61" x="346" y="686.8638">«include»</text></g><!--MD5=[daf714cc2b0df3c5c19ea576b0489a5d]
link UC4 to UC5--><g id="link_UC4_UC5"><path d="M1287.48,475.2269 C1300.01,505.0169 1320.95,554.8469 1334.36,586.7369 " fill="none" id="UC4-to-UC5" style="stroke:#181818;stroke-width:1.0;stroke-dasharray:7.0,7.0;"/><polygon fill="#181818" points="1336.45,591.6969,1336.6591,581.8502,1334.5168,587.0857,1329.2813,584.9434,1336.45,591.6969" style="stroke:#181818;stroke-width:1.0;"/><text fill="#000000" font-family="sans-serif" font-size="13" lengthAdjust="spacing" textLength="42" x="1323" y="557.8638">trigger</text></g><!--MD5=[c5253a994e4596ea8c99fba8c18960d1]
link UC5 to UC10--><g id="link_UC5_UC10"><path d="M1277.03,634.9869 C1223.54,647.8669 1157.26,665.1269 1147,673.7969 C1122.22,694.7269 1108.54,730.0669 1101.51,755.3569 " fill="none" id="UC5-to-UC10" style="stroke:#181818;stroke-width:1.0;stroke-dasharray:7.0,7.0;"/><polygon fill="#181818" points="1100.19,760.2669,1106.3922,752.6162,1101.4899,755.4388,1098.6673,750.5364,1100.19,760.2669" style="stroke:#181818;stroke-width:1.0;"/><text fill="#000000" font-family="sans-serif" font-size="13" lengthAdjust="spacing" textLength="61" x="1148" y="686.8638">«include»</text></g><!--MD5=[9a788c9e6602029ec61ef080766f23ff]
link UC6 to UC10--><g id="link_UC6_UC10"><path d="M1486.84,634.5269 C1477.44,637.8269 1467.44,641.1169 1458,643.7969 C1396.36,661.2769 1378.49,655.8069 1317,673.7969 C1260.04,690.4669 1244.83,693.7469 1192,720.7969 C1170.59,731.7569 1148.14,746.4569 1130.24,759.0469 " fill="none" id="UC6-to-UC10" style="stroke:#181818;stroke-width:1.0;stroke-dasharray:7.0,7.0;"/><polygon fill="#181818" points="1125.79,762.2069,1135.4412,760.2435,1129.8625,759.3061,1130.7999,753.7274,1125.79,762.2069" style="stroke:#181818;stroke-width:1.0;"/><text fill="#000000" font-family="sans-serif" font-size="13" lengthAdjust="spacing" textLength="61" x="1318" y="686.8638">«include»</text></g><!--MD5=[219cfe20acd2585196bd57df7d8a3c05]
link UC6 to BACK3--><g id="link_UC6_BACK3"><path d="M1515.03,643.2469 C1504.35,663.7369 1489.05,693.8669 1477,720.7969 C1451.41,777.9769 1474.64,813.5869 1425,851.7969 C1261.83,977.3769 1153.76,824.5569 965,906.7969 C937.14,918.9369 911.46,943.2969 895.78,960.2969 " fill="none" id="UC6-to-BACK3" style="stroke:#181818;stroke-width:1.0;stroke-dasharray:7.0,7.0;"/><polygon fill="#181818" points="892.4,964.0269,901.41,960.0494,895.7598,960.3239,895.4853,954.6738,892.4,964.0269" style="stroke:#181818;stroke-width:1.0;"/><text fill="#000000" font-family="sans-serif" font-size="13" lengthAdjust="spacing" textLength="61" x="1478" y="790.8638">«include»</text></g><!--MD5=[f92658300d5adc4fe1f3be64a23e2cf6]
link UC6 to UC7--><g id="link_UC6_UC7"><path d="M1485.04,633.2569 C1460.78,642.6169 1430.67,656.3269 1407,673.7969 C1375.49,697.0469 1346.66,731.7369 1328.34,756.2469 " fill="none" id="UC6-to-UC7" style="stroke:#181818;stroke-width:1.0;stroke-dasharray:7.0,7.0;"/><polygon fill="#181818" points="1325.26,760.3969,1333.8214,755.5283,1328.2279,756.373,1327.3832,750.7796,1325.26,760.3969" style="stroke:#181818;stroke-width:1.0;"/><text fill="#000000" font-family="sans-serif" font-size="13" lengthAdjust="spacing" textLength="42" x="1408" y="686.8638">trigger</text></g><!--MD5=[8c9158457200f48fe899b6dd60d6e378]
link UC7 to BACK4--><g id="link_UC7_BACK4"><path d="M1274.08,810.8269 C1251.57,825.1969 1220.79,842.5269 1191,851.7969 C1021.33,904.5769 954.97,829.4469 795,906.7969 C767.1,920.2869 739.21,942.4069 720.74,958.5769 " fill="none" id="UC7-to-BACK4" style="stroke:#181818;stroke-width:1.0;stroke-dasharray:7.0,7.0;"/><polygon fill="#181818" points="716.71,962.1369,726.0998,959.1651,720.4533,958.8222,720.7962,953.1757,716.71,962.1369" style="stroke:#181818;stroke-width:1.0;"/><text fill="#000000" font-family="sans-serif" font-size="13" lengthAdjust="spacing" textLength="61" x="858" y="894.8638">«include»</text></g><!--MD5=[63c2b427cc5afce8276c512608413f28]
link UC8 to UC2--><g id="link_UC8_UC2"><path d="M1383.62,306.4469 C1410.65,337.5269 1454.72,388.1869 1482.22,419.8169 " fill="none" id="UC8-to-UC2" style="stroke:#181818;stroke-width:1.0;stroke-dasharray:7.0,7.0;"/><polygon fill="#181818" points="1485.83,423.9569,1482.9543,414.5372,1482.5537,420.1798,1476.9111,419.7793,1485.83,423.9569" style="stroke:#181818;stroke-width:1.0;"/><text fill="#000000" font-family="sans-serif" font-size="13" lengthAdjust="spacing" textLength="111" x="1425" y="349.8638">navegar a paso 1</text></g><!--MD5=[4c615e873a560f1ef5fcee2fd1e87d80]
link UC8 to UC4--><g id="link_UC8_UC4"><path d="M1304.09,304.0269 C1291.28,312.4869 1279.3,323.3169 1272,336.7969 C1258.48,361.7769 1262.08,394.7069 1267.63,418.2869 " fill="none" id="UC8-to-UC4" style="stroke:#181818;stroke-width:1.0;stroke-dasharray:7.0,7.0;"/><polygon fill="#181818" points="1268.84,423.1769,1270.5646,413.4802,1267.6408,418.3228,1262.7981,415.399,1268.84,423.1769" style="stroke:#181818;stroke-width:1.0;"/><text fill="#000000" font-family="sans-serif" font-size="13" lengthAdjust="spacing" textLength="111" x="1273" y="349.8638">navegar a paso 2</text></g><!--MD5=[f9d8e23373818737367156e9b7966635]
link UC9 to BACK2--><g id="link_UC9_BACK2"><path d="M1017.19,624.9269 C888.05,635.2269 672.6,661.0869 624,720.7969 C587.25,765.9569 586.25,807.4669 624,851.7969 C673.77,910.2369 891.64,884.2169 965,906.7969 C999.94,917.5569 1037.13,934.7569 1066.2,949.6569 " fill="none" id="UC9-to-BACK2" style="stroke:#181818;stroke-width:1.0;stroke-dasharray:7.0,7.0;"/><polygon fill="#181818" points="1070.8,952.0169,1064.6269,944.3427,1066.3539,949.7295,1060.9671,951.4565,1070.8,952.0169" style="stroke:#181818;stroke-width:1.0;"/><text fill="#000000" font-family="sans-serif" font-size="13" lengthAdjust="spacing" textLength="61" x="625" y="790.8638">«include»</text></g><!--MD5=[13d8291acff3cf2c0f41c0168f56eaa4]
link UC11 to BACK3--><g id="link_UC11_BACK3"><path d="M1019.23,286.9369 C838.4,308.6669 423.74,389.0669 331,673.7969 C287.15,808.4469 154.76,663.6669 588,851.7969 C675.31,889.7169 710.62,862.7369 795,906.7969 C821.23,920.4969 846.48,943.5469 862.54,959.8669 " fill="none" id="UC11-to-BACK3" style="stroke:#181818;stroke-width:1.0;stroke-dasharray:7.0,7.0;"/><polygon fill="#181818" points="866.42,963.8669,863.0148,954.6254,862.9348,960.2817,857.2785,960.2017,866.42,963.8669" style="stroke:#181818;stroke-width:1.0;"/><text fill="#000000" font-family="sans-serif" font-size="13" lengthAdjust="spacing" textLength="61" x="368" y="622.3638">«include»</text></g><!--MD5=[130f008c7d3d5adb1282a50a164e10f7]
link UC1 to GMN362--><g id="link_UC1_GMN362"><path d="M1764.07,423.7369 C1791.06,398.2269 1836.6,360.6569 1884.5,345.2969 C2001.73,307.7069 2321.46,307.1269 2438.5,345.2969 C2467.62,354.7969 2495.73,372.7369 2519.18,391.0869 " fill="none" id="UC1-GMN362" style="stroke:#181818;stroke-width:1.0;stroke-dasharray:7.0,7.0;"/></g><!--MD5=[83b427631f9fe94eda71990df6294519]
link UC2 to GMN365--><g id="link_UC2_GMN365"><path d="M1527.26,423.8269 C1549.29,398.3869 1587.08,360.8769 1629.5,345.2969 C1741.52,304.1569 2052.42,310.2869 2166.5,345.2969 C2193.12,353.4669 2219.27,367.9869 2242.24,383.6369 " fill="none" id="UC2-GMN365" style="stroke:#181818;stroke-width:1.0;stroke-dasharray:7.0,7.0;"/></g><!--MD5=[1ebf7139cb205c6156cfe5e12a2d2875]
link UC4 to GMN368--><g id="link_UC4_GMN368"><path d="M1301.66,423.7469 C1328.22,398.2369 1373.09,360.6669 1420.5,345.2969 C1511.4,315.8269 1758.37,319.9269 1850.5,345.2969 C1889.26,355.9669 1928.11,377.7669 1959.27,398.6569 " fill="none" id="UC4-GMN368" style="stroke:#181818;stroke-width:1.0;stroke-dasharray:7.0,7.0;"/></g><!--MD5=[bdaa40c4459a1f0fcabc1f36893c7336]
link UC6 to GMN371--><g id="link_UC6_GMN371"><path d="M1488.16,634.9869 C1478.44,638.3969 1467.96,641.6069 1458,643.7969 C1311.99,675.8569 1268.73,640.5169 1123,673.7969 C1065.14,687.0069 1053.18,698.9469 998,720.7969 C992.72,722.8869 987.34,725.0369 981.91,727.2169 " fill="none" id="UC6-GMN371" style="stroke:#181818;stroke-width:1.0;stroke-dasharray:7.0,7.0;"/></g><!--MD5=[3717c15fa0b074df68a88d136ebcafa0]
link UC8 to GMN374--><g id="link_UC8_GMN374"><path d="M1278.9,300.6669 C1205.15,320.5869 1093.56,351.9369 998,383.7969 C990.81,386.1969 983.48,388.7069 976.09,391.2969 " fill="none" id="UC8-GMN374" style="stroke:#181818;stroke-width:1.0;stroke-dasharray:7.0,7.0;"/></g><!--MD5=[459141509d661aec89da0ee007b6cec5]
@startuml
title Casos de Uso - Pagina Modelado Inner Speech (modelado_inner_speech.py)

' Actor
actor "Usuario\nInvestigador" as user #lightblue

' Sistema boundary
rectangle "Sistema EGG-lab\n(Modelado Inner Speech)" {

  ' Casos de uso principales
  usecase "Seleccionar Dataset\nInner Speech" as UC1 #lightgreen
  usecase "Configurar\nTransformacion" as UC2 #lightblue
  usecase "Visualizar Señal\nOriginal/Transformada" as UC3 #yellow
  usecase "Seleccionar Modelo\nde Clasificacion" as UC4 #orange
  usecase "Configurar\nHiperparametros" as UC5 #pink
  usecase "Entrenar\nModelo" as UC6 #lavender
  usecase "Ver Metricas\nde Entrenamiento" as UC7 #lightcyan
  usecase "Navegar entre\nPasos (Transform/Modelo)" as UC8 #lightyellow

  ' Casos de uso secundarios
  usecase "Aplicar Pipeline\nde Transformacion" as UC9 #lightyellow
  usecase "Validar\nConfiguracion" as UC10 #lightyellow
  usecase "Guardar Modelo\nEntrenado" as UC11 #lightgray
}

' Sistemas externos
rectangle "Backend" {
  usecase "ClassifierSchemaFactory\n.get_all_schemas()" as BACK1 #lavender
  usecase "Experiment.apply_history_pipeline()" as BACK2 #lavender
  usecase "Model.train()" as BACK3 #lavender
  usecase "Model.evaluate()" as BACK4 #lavender
  usecase "Dataset.load_event_with_channels()" as BACK5 #lavender
}

' Relaciones usuario -> casos de uso
user - -> UC1 : "Seleccionar desde Sidebar"
user - -> UC2 : "Aplicar filtros/transformadas"
user - -> UC4 : "Clic en card de modelo"
user - -> UC5 : "Ajustar parametros"
user - -> UC6 : "Clic en Entrenar"
user - -> UC8 : "Navegar paso 1/2"

' Relaciones include
UC1 ..> BACK5 : <<include>>
UC1 ..> UC3 : <<include>>

UC2 ..> UC9 : <<include>>
UC2 ..> UC3 : update

UC3 ..> BACK2 : <<include>>

UC4 ..> BACK1 : <<include>>
UC4 ..> UC5 : trigger

UC5 ..> UC10 : <<include>>

UC6 ..> UC10 : <<include>>
UC6 ..> BACK3 : <<include>>
UC6 ..> UC7 : trigger

UC7 ..> BACK4 : <<include>>

UC8 ..> UC2 : navegar a paso 1
UC8 ..> UC4 : navegar a paso 2

UC9 ..> BACK2 : <<include>>

UC11 ..> BACK3 : <<include>>

' Notas
note right of UC1
  Flujo Inner Speech:
  1. Carga dataset especifico de
     Inner Speech (Nieto)
  2. Valida que tenga 4 clases
     (arriba, abajo, izq, der)
  3. Carga metadata y canales
  4. Renderiza PlayGround
end note

note right of UC2
  Flujo Paso 1 - Transformacion:
  1. Usuario aplica transformadas
     desde RightColumn
  2. Sistema ejecuta pipeline
  3. Visualiza señal original y
     transformada en dos columnas
  4. Valida que se haya aplicado
     transformacion antes de paso 2
end note

note right of UC4
  Flujo Paso 2 - Modelo:
  1. Muestra cards de modelos disponibles
     (LSTM, GRU, SVM, etc)
  2. Usuario selecciona modelo
  3. Carga schema con hiperparametros
  4. Renderiza controles de configuracion
end note

note bottom of UC6
  Flujo de Entrenamiento:
  1. Valida configuracion completa
  2. Valida que haya transformacion
  3. Inicia entrenamiento asincronico
  4. Actualiza metricas en tiempo real
     (loss, accuracy, epoch)
  5. Guarda modelo al finalizar
  6. Especifico para 4 clases Inner Speech
end note

note bottom of UC8
  Sistema de Pasos:
  - Paso 1: Transformacion (siempre activo)
  - Paso 2: Modelo (solo si hay transformacion)
  - Usuario navega entre pasos con
    indicadores visuales
  - No puede configurar modelo sin
    completar transformacion
end note

' Estilos
skinparam usecase {
  BackgroundColor lightblue
  BorderColor darkblue
  ArrowColor darkblue
}

skinparam actor {
  BackgroundColor lightblue
  BorderColor darkblue
}

skinparam note {
  BackgroundColor lightyellow
  BorderColor orange
}
@enduml

@startuml
title Casos de Uso - Pagina Modelado Inner Speech (modelado_inner_speech.py)

actor "Usuario\nInvestigador" as user #lightblue

rectangle "Sistema EGG-lab\n(Modelado Inner Speech)" {

  usecase "Seleccionar Dataset\nInner Speech" as UC1 #lightgreen
  usecase "Configurar\nTransformacion" as UC2 #lightblue
  usecase "Visualizar Señal\nOriginal/Transformada" as UC3 #yellow
  usecase "Seleccionar Modelo\nde Clasificacion" as UC4 #orange
  usecase "Configurar\nHiperparametros" as UC5 #pink
  usecase "Entrenar\nModelo" as UC6 #lavender
  usecase "Ver Metricas\nde Entrenamiento" as UC7 #lightcyan
  usecase "Navegar entre\nPasos (Transform/Modelo)" as UC8 #lightyellow

  usecase "Aplicar Pipeline\nde Transformacion" as UC9 #lightyellow
  usecase "Validar\nConfiguracion" as UC10 #lightyellow
  usecase "Guardar Modelo\nEntrenado" as UC11 #lightgray
}

rectangle "Backend" {
  usecase "ClassifierSchemaFactory\n.get_all_schemas()" as BACK1 #lavender
  usecase "Experiment.apply_history_pipeline()" as BACK2 #lavender
  usecase "Model.train()" as BACK3 #lavender
  usecase "Model.evaluate()" as BACK4 #lavender
  usecase "Dataset.load_event_with_channels()" as BACK5 #lavender
}

user - -> UC1 : "Seleccionar desde Sidebar"
user - -> UC2 : "Aplicar filtros/transformadas"
user - -> UC4 : "Clic en card de modelo"
user - -> UC5 : "Ajustar parametros"
user - -> UC6 : "Clic en Entrenar"
user - -> UC8 : "Navegar paso 1/2"

UC1 ..> BACK5 : <<include>>
UC1 ..> UC3 : <<include>>

UC2 ..> UC9 : <<include>>
UC2 ..> UC3 : update

UC3 ..> BACK2 : <<include>>

UC4 ..> BACK1 : <<include>>
UC4 ..> UC5 : trigger

UC5 ..> UC10 : <<include>>

UC6 ..> UC10 : <<include>>
UC6 ..> BACK3 : <<include>>
UC6 ..> UC7 : trigger

UC7 ..> BACK4 : <<include>>

UC8 ..> UC2 : navegar a paso 1
UC8 ..> UC4 : navegar a paso 2

UC9 ..> BACK2 : <<include>>

UC11 ..> BACK3 : <<include>>

note right of UC1
  Flujo Inner Speech:
  1. Carga dataset especifico de
     Inner Speech (Nieto)
  2. Valida que tenga 4 clases
     (arriba, abajo, izq, der)
  3. Carga metadata y canales
  4. Renderiza PlayGround
end note

note right of UC2
  Flujo Paso 1 - Transformacion:
  1. Usuario aplica transformadas
     desde RightColumn
  2. Sistema ejecuta pipeline
  3. Visualiza señal original y
     transformada en dos columnas
  4. Valida que se haya aplicado
     transformacion antes de paso 2
end note

note right of UC4
  Flujo Paso 2 - Modelo:
  1. Muestra cards de modelos disponibles
     (LSTM, GRU, SVM, etc)
  2. Usuario selecciona modelo
  3. Carga schema con hiperparametros
  4. Renderiza controles de configuracion
end note

note bottom of UC6
  Flujo de Entrenamiento:
  1. Valida configuracion completa
  2. Valida que haya transformacion
  3. Inicia entrenamiento asincronico
  4. Actualiza metricas en tiempo real
     (loss, accuracy, epoch)
  5. Guarda modelo al finalizar
  6. Especifico para 4 clases Inner Speech
end note

note bottom of UC8
  Sistema de Pasos:
  - Paso 1: Transformacion (siempre activo)
  - Paso 2: Modelo (solo si hay transformacion)
  - Usuario navega entre pasos con
    indicadores visuales
  - No puede configurar modelo sin
    completar transformacion
end note

skinparam usecase {
  BackgroundColor lightblue
  BorderColor darkblue
  ArrowColor darkblue
}

skinparam actor {
  BackgroundColor lightblue
  BorderColor darkblue
}

skinparam note {
  BackgroundColor lightyellow
  BorderColor orange
}
@enduml

PlantUML version 1.2022.7(Mon Aug 22 17:01:30 UTC 2022)
(GPL source distribution)
Java Runtime: OpenJDK Runtime Environment
JVM: OpenJDK 64-Bit Server VM
Default Encoding: UTF-8
Language: en
Country: null
--></g></svg>