<?xml version="1.0" encoding="UTF-8" standalone="no"?><svg xmlns="http://www.w3.org/2000/svg" xmlns:xlink="http://www.w3.org/1999/xlink" contentStyleType="text/css" height="286px" preserveAspectRatio="none" style="width:2594px;height:286px;background:#FFFFFF;" version="1.1" viewBox="0 0 2594 286" width="2594px" zoomAndPan="magnify"><defs/><g><rect fill="none" height="42.5938" id="_title" style="stroke:none;stroke-width:1.0;" width="256" x="1162" y="5"/><text fill="#000000" font-family="sans-serif" font-size="14" font-weight="bold" lengthAdjust="spacing" textLength="202" x="1189" y="22.9951">Casos de Uso (Front-End)</text><text fill="#000000" font-family="sans-serif" font-size="14" font-weight="bold" lengthAdjust="spacing" textLength="246" x="1167" y="39.292">Paso 1 — Transformación P300</text><!--MD5=[fb14c77ecae49dd2e92eb1562f85d977]
cluster Página P300 — Paso 1: Transformación--><g id="cluster_Página P300 — Paso 1: Transformación"><rect fill="none" height="103" rx="2.5" ry="2.5" style="stroke:#181818;stroke-width:1.0;" width="2581" x="7" y="177.0938"/><text fill="#000000" font-family="sans-serif" font-size="14" font-weight="bold" lengthAdjust="spacing" textLength="309" x="1143" y="192.0889">Página P300 — Paso 1: Transformación</text></g><g id="elem_UC_LoadMeta"><ellipse cx="2480.0541" cy="238.2597" fill="#F1F1F1" rx="92.5541" ry="26.1659" style="stroke:#181818;stroke-width:0.5;"/><text fill="#000000" font-family="sans-serif" font-size="14" lengthAdjust="spacing" textLength="114" x="2420.0541" y="233.8588">Cargar metadata</text><text fill="#000000" font-family="sans-serif" font-size="14" lengthAdjust="spacing" textLength="77" x="2438.5541" y="250.1556">del dataset</text></g><g id="elem_UC_ClassExplore"><ellipse cx="2272.9744" cy="238.1733" fill="#F1F1F1" rx="79.4744" ry="26.0795" style="stroke:#181818;stroke-width:0.5;"/><text fill="#000000" font-family="sans-serif" font-size="14" lengthAdjust="spacing" textLength="96" x="2222.1165" y="233.734">Explorar señal</text><text fill="#000000" font-family="sans-serif" font-size="14" lengthAdjust="spacing" textLength="71" x="2234.6165" y="250.0309">por clases</text></g><g id="elem_UC_ChannelExplore"><ellipse cx="2078.9744" cy="238.1733" fill="#F1F1F1" rx="79.4744" ry="26.0795" style="stroke:#181818;stroke-width:0.5;"/><text fill="#000000" font-family="sans-serif" font-size="14" lengthAdjust="spacing" textLength="96" x="2028.1165" y="233.734">Explorar señal</text><text fill="#000000" font-family="sans-serif" font-size="14" lengthAdjust="spacing" textLength="80" x="2036.1165" y="250.0309">por canales</text></g><g id="elem_UC_ChannelNav"><ellipse cx="1860.9092" cy="238.141" fill="#F1F1F1" rx="103.4092" ry="26.0473" style="stroke:#181818;stroke-width:0.5;"/><text fill="#000000" font-family="sans-serif" font-size="14" lengthAdjust="spacing" textLength="113" x="1804.4092" y="232.8393">Navegar canales</text><text fill="#000000" font-family="sans-serif" font-size="14" lengthAdjust="spacing" textLength="130" x="1795.9092" y="249.1361">anterior / siguiente</text></g><g id="elem_UC_SelectChannels"><ellipse cx="1612.7689" cy="238.3401" fill="#F1F1F1" rx="109.2689" ry="26.2463" style="stroke:#181818;stroke-width:0.5;"/><text fill="#000000" font-family="sans-serif" font-size="14" lengthAdjust="spacing" textLength="137" x="1541.2689" y="233.9392">Seleccionar canales</text><text fill="#000000" font-family="sans-serif" font-size="14" lengthAdjust="spacing" textLength="78" x="1570.7689" y="250.2361">específicos</text></g><g id="elem_UC_FilterClass"><ellipse cx="1394.2198" cy="238.3377" fill="#F1F1F1" rx="74.2198" ry="17.244" style="stroke:#181818;stroke-width:0.5;"/><text fill="#000000" font-family="sans-serif" font-size="14" lengthAdjust="spacing" textLength="104" x="1339.2198" y="242.0853">Filtrar por clase</text></g><g id="elem_UC_ConfigPipeline"><ellipse cx="1184.8736" cy="238.141" fill="#F1F1F1" rx="99.8736" ry="26.0473" style="stroke:#181818;stroke-width:0.5;"/><text fill="#000000" font-family="sans-serif" font-size="14" lengthAdjust="spacing" textLength="117" x="1126.3736" y="232.8393">Configurar pasos</text><text fill="#000000" font-family="sans-serif" font-size="14" lengthAdjust="spacing" textLength="125" x="1122.3736" y="249.1361">de transformación</text></g><g id="elem_UC_ApplyTransform"><ellipse cx="955.0638" cy="237.9065" fill="#F1F1F1" rx="94.5638" ry="21.3128" style="stroke:#181818;stroke-width:0.5;"/><text fill="#000000" font-family="sans-serif" font-size="14" lengthAdjust="spacing" textLength="152" x="879.0638" y="240.7532">Aplicar transformación</text></g><g id="elem_UC_ViewTransformed"><ellipse cx="748.832" cy="238.141" fill="#F1F1F1" rx="75.832" ry="26.0473" style="stroke:#181818;stroke-width:0.5;"/><text fill="#000000" font-family="sans-serif" font-size="14" lengthAdjust="spacing" textLength="64" x="716.832" y="232.8393">Ver señal</text><text fill="#000000" font-family="sans-serif" font-size="14" lengthAdjust="spacing" textLength="91" x="703.332" y="249.1361">transformada</text></g><g id="elem_UC_History"><ellipse cx="525.8944" cy="238.141" fill="#F1F1F1" rx="111.8944" ry="26.0473" style="stroke:#181818;stroke-width:0.5;"/><text fill="#000000" font-family="sans-serif" font-size="14" lengthAdjust="spacing" textLength="107" x="472.3944" y="232.8393">Revisar historial</text><text fill="#000000" font-family="sans-serif" font-size="14" lengthAdjust="spacing" textLength="142" x="454.8944" y="249.1361">de transformaciones</text></g><g id="elem_UC_AutoApply"><ellipse cx="294.9263" cy="237.879" fill="#F1F1F1" rx="84.4263" ry="19.2853" style="stroke:#181818;stroke-width:0.5;"/><text fill="#000000" font-family="sans-serif" font-size="14" lengthAdjust="spacing" textLength="129" x="230.305" y="240.7676">Activar auto-aplicar</text></g><g id="elem_UC_GoToModel"><ellipse cx="98.832" cy="238.141" fill="#F1F1F1" rx="75.832" ry="26.0473" style="stroke:#181818;stroke-width:0.5;"/><text fill="#000000" font-family="sans-serif" font-size="14" lengthAdjust="spacing" textLength="79" x="59.332" y="232.8393">Ir al paso 2:</text><text fill="#000000" font-family="sans-serif" font-size="14" lengthAdjust="spacing" textLength="91" x="53.332" y="249.1361">Modelo P300</text></g><!--MD5=[fee662a292a0353a69bd162820bae93b]
entity User--><g id="elem_User"><ellipse cx="1289" cy="67.5938" fill="#F1F1F1" rx="8" ry="8" style="stroke:#181818;stroke-width:0.5;"/><path d="M1289,75.5938 L1289,102.5938 M1276,83.5938 L1302,83.5938 M1289,102.5938 L1276,117.5938 M1289,102.5938 L1302,117.5938 " fill="none" style="stroke:#181818;stroke-width:0.5;"/><text fill="#000000" font-family="sans-serif" font-size="14" lengthAdjust="spacing" textLength="52" x="1247" y="132.0889">Usuario</text><text fill="#000000" font-family="sans-serif" font-size="14" lengthAdjust="spacing" textLength="84" x="1247" y="148.3857">Investigador</text></g><!--MD5=[54e235ef462ca6d95a8019f05db733e2]
link User to UC_LoadMeta--><g id="link_User_UC_LoadMeta"><path d="M1331.2,106.2838 C1505.72,105.4138 2171.23,106.3638 2370,169.0938 C2397.9,177.9038 2425.9,195.3637 2446.67,210.3838 " fill="none" id="User-to-UC_LoadMeta" style="stroke:#181818;stroke-width:1.0;"/><polygon fill="#181818" points="2450.72,213.3538,2445.8173,204.8119,2446.6844,210.4019,2441.0943,211.2689,2450.72,213.3538" style="stroke:#181818;stroke-width:1.0;"/></g><!--MD5=[c86a160029104508351a7af5e9c0c21b]
link User to UC_ClassExplore--><g id="link_User_UC_ClassExplore"><path d="M1331.08,106.5938 C1485.09,107.0638 2017.32,112.8038 2176,169.0938 C2200.87,177.9138 2225.17,194.9738 2243.23,209.7938 " fill="none" id="User-to-UC_ClassExplore" style="stroke:#181818;stroke-width:1.0;"/><polygon fill="#181818" points="2247.22,213.1137,2242.8635,204.2808,2243.3777,209.9142,2237.7443,210.4284,2247.22,213.1137" style="stroke:#181818;stroke-width:1.0;"/></g><!--MD5=[e05c1ae460ce667b0eb5d71a7b057b6a]
link User to UC_ChannelExplore--><g id="link_User_UC_ChannelExplore"><path d="M1331.32,107.5638 C1462.6,111.0137 1861.32,124.9438 1982,169.0938 C2006.78,178.1538 2031.08,195.2138 2049.17,209.9838 " fill="none" id="User-to-UC_ChannelExplore" style="stroke:#181818;stroke-width:1.0;"/><polygon fill="#181818" points="2053.16,213.2838,2048.7874,204.4588,2049.3119,210.0912,2043.6794,210.6157,2053.16,213.2838" style="stroke:#181818;stroke-width:1.0;"/></g><!--MD5=[fbcccb2778f3474d0cfe0335aaa5f851]
link User to UC_ChannelNav--><g id="link_User_UC_ChannelNav"><path d="M1331.23,107.2438 C1412.5,109.6037 1595.42,120.4038 1740,169.0938 C1769.33,178.9738 1799.69,196.0537 1822.66,210.6238 " fill="none" id="User-to-UC_ChannelNav" style="stroke:#181818;stroke-width:1.0;"/><polygon fill="#181818" points="1827.15,213.5038,1821.7099,205.2936,1822.9335,210.8166,1817.4105,212.0401,1827.15,213.5038" style="stroke:#181818;stroke-width:1.0;"/></g><!--MD5=[c0496a65498532080ed35c4e97a46204]
link User to UC_SelectChannels--><g id="link_User_UC_SelectChannels"><path d="M1331.31,117.5737 C1371.76,128.6438 1434.1,147.1838 1486,169.0938 C1514.63,181.1838 1545.39,197.5537 1569.47,211.2038 " fill="none" id="User-to-UC_SelectChannels" style="stroke:#181818;stroke-width:1.0;"/><polygon fill="#181818" points="1573.88,213.7238,1568.056,205.7814,1569.5405,211.24,1564.082,212.7245,1573.88,213.7238" style="stroke:#181818;stroke-width:1.0;"/></g><!--MD5=[801511091959f2d8aed05083265c70f4]
link User to UC_FilterClass--><g id="link_User_UC_FilterClass"><path d="M1325.72,152.2338 C1343.5,174.3238 1363.93,199.7238 1377.78,216.9237 " fill="none" id="User-to-UC_FilterClass" style="stroke:#181818;stroke-width:1.0;"/><polygon fill="#181818" points="1381.15,221.1238,1378.6173,211.6061,1378.0126,217.2306,1372.3882,216.6259,1381.15,221.1238" style="stroke:#181818;stroke-width:1.0;"/></g><!--MD5=[af7f5ae9113d86dca54d2a3191ea0cc6]
link User to UC_ConfigPipeline--><g id="link_User_UC_ConfigPipeline"><path d="M1252.63,152.2338 C1237.72,170.9338 1220.93,192.0038 1207.81,208.4738 " fill="none" id="User-to-UC_ConfigPipeline" style="stroke:#181818;stroke-width:1.0;"/><polygon fill="#181818" points="1204.55,212.5537,1213.2836,208.0013,1207.663,208.6411,1207.0233,203.0205,1204.55,212.5537" style="stroke:#181818;stroke-width:1.0;"/></g><!--MD5=[bb5077c6b99d70a06028c0c733a4bc1a]
link User to UC_ApplyTransform--><g id="link_User_UC_ApplyTransform"><path d="M1246.72,115.0338 C1201.38,124.8738 1127.82,143.1838 1068,169.0938 C1039.44,181.4638 1009.35,199.8738 987.4,214.4138 " fill="none" id="User-to-UC_ApplyTransform" style="stroke:#181818;stroke-width:1.0;"/><polygon fill="#181818" points="983.13,217.2638,992.8333,215.5766,987.2837,214.4804,988.3799,208.9308,983.13,217.2638" style="stroke:#181818;stroke-width:1.0;"/></g><!--MD5=[9a949426f13b0a60167a5ae60ce8851d]
link User to UC_ViewTransformed--><g id="link_User_UC_ViewTransformed"><path d="M1246.7,105.8438 C1165.39,105.8338 982.98,112.7337 843,169.0938 C819.2,178.6737 795.82,195.5537 778.32,210.0938 " fill="none" id="User-to-UC_ViewTransformed" style="stroke:#181818;stroke-width:1.0;"/><polygon fill="#181818" points="774.46,213.3538,783.9189,210.6097,778.2823,210.1304,778.7616,204.4939,774.46,213.3538" style="stroke:#181818;stroke-width:1.0;"/></g><!--MD5=[a3fefb2fd6ce0a79ae0ea3efbf5d6aee]
link User to UC_History--><g id="link_User_UC_History"><path d="M1246.67,108.6638 C1123.57,115.0137 767.37,135.8338 656,169.0938 C624.41,178.5238 591.53,195.8037 566.74,210.5838 " fill="none" id="User-to-UC_History" style="stroke:#181818;stroke-width:1.0;"/><polygon fill="#181818" points="562.21,213.3138,571.9854,212.1133,566.4975,210.7413,567.8695,205.2533,562.21,213.3138" style="stroke:#181818;stroke-width:1.0;"/></g><!--MD5=[045ec241b5f7eb336a6ced2205a8cb2e]
link User to UC_AutoApply--><g id="link_User_UC_AutoApply"><path d="M1246.99,106.7038 C1092.61,107.5238 557.32,114.3638 397,169.0938 C367.79,179.0638 338.94,199.5638 319.41,215.4638 " fill="none" id="User-to-UC_AutoApply" style="stroke:#181818;stroke-width:1.0;"/><polygon fill="#181818" points="315.15,218.9838,324.6316,216.3193,318.9993,215.7927,319.5259,210.1604,315.15,218.9838" style="stroke:#181818;stroke-width:1.0;"/></g><!--MD5=[60feeb33d5797e888d43626dcfe7850f]
link User to UC_GoToModel--><g id="link_User_UC_GoToModel"><path d="M1246.94,107.5938 C1058.12,112.2838 293.62,133.3238 193,169.0938 C168.48,177.8138 144.76,195.0537 127.28,209.9938 " fill="none" id="User-to-UC_GoToModel" style="stroke:#181818;stroke-width:1.0;"/><polygon fill="#181818" points="123.43,213.3438,132.8497,210.4681,127.207,210.0675,127.6076,204.4248,123.43,213.3438" style="stroke:#181818;stroke-width:1.0;"/></g><!--MD5=[6b445177adad9dcb3d6c8794fc7c120f]
@startuml
title
  Casos de Uso (Front-End)
  Paso 1 — Transformación P300
end title

actor "Usuario\nInvestigador" as User

rectangle "Página P300 — Paso 1: Transformación" {

  
  usecase "Cargar metadata\ndel dataset" as UC_LoadMeta
  usecase "Explorar señal\npor clases" as UC_ClassExplore
  usecase "Explorar señal\npor canales" as UC_ChannelExplore
  usecase "Navegar canales\nanterior / siguiente" as UC_ChannelNav
  usecase "Seleccionar canales\nespecíficos" as UC_SelectChannels
  usecase "Filtrar por clase" as UC_FilterClass

  usecase "Configurar pasos\nde transformación" as UC_ConfigPipeline
  usecase "Aplicar transformación" as UC_ApplyTransform
  usecase "Ver señal\ntransformada" as UC_ViewTransformed
  usecase "Revisar historial\nde transformaciones" as UC_History
  usecase "Activar auto-aplicar" as UC_AutoApply

  usecase "Ir al paso 2:\nModelo P300" as UC_GoToModel
}

User - -> UC_LoadMeta
User - -> UC_ClassExplore
User - -> UC_ChannelExplore
User - -> UC_ChannelNav
User - -> UC_SelectChannels
User - -> UC_FilterClass
User - -> UC_ConfigPipeline
User - -> UC_ApplyTransform
User - -> UC_ViewTransformed
User - -> UC_History
User - -> UC_AutoApply
User - -> UC_GoToModel
@enduml

PlantUML version 1.2022.7(Mon Aug 22 17:01:30 UTC 2022)
(GPL source distribution)
Java Runtime: OpenJDK Runtime Environment
JVM: OpenJDK 64-Bit Server VM
Default Encoding: UTF-8
Language: en
Country: null
--></g></svg>